<?xml version="1.0" encoding="utf-8"?>
<!-- Generator: Adobe Illustrator 21.1.0, SVG Export Plug-In . SVG Version: 6.00 Build 0)  -->
<svg version="1.1" id="Layer_1" xmlns="http://www.w3.org/2000/svg" xmlns:xlink="http://www.w3.org/1999/xlink" x="0px" y="0px"
	 viewBox="0 0 19 20" style="enable-background:new 0 0 19 20;" xml:space="preserve">
<style type="text/css">
	.st0{fill:#FFFFFF;}
</style>
<path class="st0" d="M18.638,17.502l-4.517-5.311c0.809-1.243,1.284-2.733,1.284-4.334C15.405,3.525,11.95,0,7.702,0
	C6.522,0,5.407,0.28,4.406,0.767C3.499,1.207,2.692,1.821,2.022,2.57C0.771,3.967,0,5.82,0,7.857c0,4.332,3.455,7.857,7.702,7.857
	c1.607,0,3.099-0.506,4.335-1.368l4.365,5.133c0.536,0.63,1.47,0.697,2.087,0.151C19.107,19.084,19.173,18.132,18.638,17.502z
	 M10.552,12.599c-0.831,0.522-1.805,0.828-2.85,0.828c-3.011,0-5.46-2.499-5.46-5.57c0-1.348,0.473-2.586,1.257-3.551
	c0.639-0.786,1.487-1.386,2.454-1.721c0.55-0.191,1.137-0.299,1.75-0.299c3.011,0,5.46,2.499,5.46,5.57
	c0,0.903-0.217,1.754-0.593,2.51C12.112,11.288,11.411,12.06,10.552,12.599z"/>
</svg>
