<?xml version="1.0" encoding="utf-8"?>
<!-- Generator: Adobe Illustrator 21.1.0, SVG Export Plug-In . SVG Version: 6.00 Build 0)  -->
<svg version="1.1" id="Capa_1" xmlns="http://www.w3.org/2000/svg" xmlns:xlink="http://www.w3.org/1999/xlink" x="0px" y="0px"
	 viewBox="0 0 31 31" style="enable-background:new 0 0 31 31;" xml:space="preserve">
<style type="text/css">
	.st0{fill:none;stroke:#1D1D1B;stroke-miterlimit:10;}
</style>
<path d="M13.4319992,15.2039995h-1.5509996v-2.2440004h1.5509996v-1.507c0-0.6639996,0.0170002-1.6890001,0.5-2.3239994
	C14.4399996,8.4569998,15.138999,8,16.3389988,8c1.9559994,0,2.7810001,0.2790003,2.7810001,0.2790003l-0.3889999,2.2979994
	c0,0-0.6459999-0.1870003-1.2490005-0.1870003s-1.1429996,0.2159996-1.1429996,0.8190002v1.7519999h2.4720001v-0.0019999
	l-0.1720009,2.2439995h-2.3010006v7.7959995h-2.9069996"/>
<path class="st0" d="M15.5,0.5c-8.2840004,0-15,6.7160001-15,15s6.7160001,15,15,15s15-6.7150002,15-15
	C30.5,7.2160001,23.7840004,0.5,15.5,0.5z"/>
</svg>
