<?xml version="1.0" encoding="utf-8"?>
<!-- Generator: Adobe Illustrator 21.1.0, SVG Export Plug-In . SVG Version: 6.00 Build 0)  -->
<svg version="1.1" id="Capa_1" xmlns="http://www.w3.org/2000/svg" xmlns:xlink="http://www.w3.org/1999/xlink" x="0px" y="0px"
	 viewBox="0 0 31 31" style="enable-background:new 0 0 31 31;" xml:space="preserve">
<style type="text/css">
	.st0{fill:none;stroke:#1D1D1B;stroke-miterlimit:10;}
	.st1{fill:#1D1D1B;}
</style>
<g>
	<path class="st0" d="M15.5,0.5c-8.2840004,0-15,6.7160001-15,15s6.7160001,15,15,15s15-6.7150002,15-15
		C30.5,7.2160001,23.7840004,0.5,15.5,0.5z"/>
	<g>
		<path class="st1" d="M21.487999,13.1659994c0.0049992,0.1309996,0.0090008,0.2650003,0.0090008,0.3990002
			c0,4.0740004-3.0990009,8.7699995-8.7709999,8.7699995c-1.7410002,0-3.3610001-0.5109997-4.7250004-1.3840008
			c0.2410002,0.0289993,0.4870005,0.0429993,0.7350006,0.0429993c1.4440002,0,2.7740002-0.493,3.8280001-1.3199997
			c-1.349-0.0240002-2.4870005-0.9150009-2.8789997-2.1389999c0.1879997,0.0359993,0.3809996,0.0550003,0.5789995,0.0550003
			c0.2819996,0,0.5539999-0.0359993,0.8129997-0.1089993c-1.4110003-0.2830009-2.474-1.5279999-2.474-3.0220003v-0.0380001
			C9.0190001,14.6509981,9.4939995,14.789999,10,14.8059988c-0.8269997-0.5539999-1.3710003-1.4969997-1.3710003-2.5649996
			c0-0.5649996,0.1520004-1.0950003,0.4169998-1.5509996c1.5209999,1.8660002,3.7919998,3.0929995,6.3540001,3.2209997
			c-0.0530005-0.2250004-0.0799999-0.46-0.0799999-0.7019997c0-1.7019997,1.3799992-3.0819998,3.0809994-3.0819998
			c0.8869991,0,1.6889992,0.375,2.25,0.9729996c0.7029991-0.1379995,1.3619995-0.3940001,1.9580002-0.7469997
			c-0.2299995,0.7200003-0.7180004,1.323-1.3549995,1.7049999c0.6229992-0.0749998,1.2180004-0.2399998,1.7700005-0.4849997
			C22.612999,12.1879997,22.0900002,12.7309999,21.487999,13.1659994z"/>
	</g>
</g>
</svg>
