<?xml version="1.0" encoding="utf-8"?>
<!-- Generator: Adobe Illustrator 21.1.0, SVG Export Plug-In . SVG Version: 6.00 Build 0)  -->
<svg version="1.1" id="Capa_1" xmlns="http://www.w3.org/2000/svg" xmlns:xlink="http://www.w3.org/1999/xlink" x="0px" y="0px"
	 viewBox="0 0 31 31" style="enable-background:new 0 0 31 31;" xml:space="preserve">
<style type="text/css">
	.st0{fill:none;stroke:#1D1D1B;stroke-miterlimit:10;}
</style>
<g>
	<polygon points="11.3029995,21.3500004 8.3779993,21.3500004 8.3779993,11.9939995 11.302,11.9939995 11.302,21.3500004 	"/>
	<path d="M9.7649994,10.823H9.7439995c-1.0579996,0-1.744-0.7150002-1.744-1.6219997
		c0-0.9239998,0.7059999-1.6249995,1.7850003-1.6249995c1.0780001,0,1.7419996,0.6989999,1.7630005,1.6229997
		C11.5489998,10.1059999,10.8649998,10.823,9.7649994,10.823z"/>
	<path d="M23,21.3500004h-3.3150005v-4.842001c0-1.2679996-0.5179996-2.132-1.6590004-2.132
		c-0.8729992,0-1.3570004,0.5839996-1.5830002,1.1459999c-0.0839996,0.2010002-0.0709991,0.4829998-0.0709991,0.7649994v5.0629997
		h-3.2849998c0,0,0.0430002-8.5769997,0-9.3570004h3.2849998v1.4680004c0.1949997-0.6420002,1.243-1.5579996,2.9190006-1.5579996
		c2.0779991,0,3.7099991,1.3470001,3.7099991,4.2440004v5.203001H23z"/>
</g>
<path class="st0" d="M15.5,0.5c-8.2840004,0-15,6.7160001-15,15s6.7160001,15,15,15s15-6.7150002,15-15
	C30.5,7.2160001,23.7840004,0.5,15.5,0.5z"/>
</svg>
