<?xml version="1.0" encoding="utf-8"?>
<!-- Generator: Adobe Illustrator 21.1.0, SVG Export Plug-In . SVG Version: 6.00 Build 0)  -->
<svg version="1.1" id="Layer_1" xmlns="http://www.w3.org/2000/svg" xmlns:xlink="http://www.w3.org/1999/xlink" x="0px" y="0px"
	 viewBox="0 0 31 31" style="enable-background:new 0 0 31 31;" xml:space="preserve">
<style type="text/css">
	.st0{fill:none;stroke:#1D1D1B;stroke-miterlimit:10;}
	.st1{fill:#3C3C3B;}
	.st2{fill:#878787;}
</style>
<g>
	<circle class="st0" cx="15.5" cy="15.5" r="15"/>
	<g>
		<path class="st1" d="M15.5,13.9790001c-0.0570002,0-0.1140003,0.0030003-0.1709995,0.0039997
			c-4.8540001,0.0780001-8.9069996,3.4470005-10.0240002,7.9750004c2.112,3.3269997,5.8050003,5.5510006,10.0240002,5.6090012
			c0.0570002,0.0009995,0.1140003,0.0030003,0.1709995,0.0030003c4.2900009,0,8.0540009-2.2399998,10.1949997-5.6119995
			C24.5639992,17.3759995,20.4300003,13.9790001,15.5,13.9790001z"/>
		<path class="st1" d="M5.3049998,21.9569988c2.112,3.3269997,5.8049998,5.5510006,10.0240002,5.6089993V13.9819994
			C10.4749994,14.0599995,6.4219995,17.4300003,5.3049998,21.9569988z"/>
		<path class="st1" d="M11.349,9.052c0,2.2349997,1.7670002,4.0570002,3.9800005,4.1469994V4.9059997
			C13.1159992,4.9949999,11.349,6.8169994,11.349,9.052z"/>
		<path class="st2" d="M25.6949997,21.9569988C24.5650005,17.3759995,20.4300003,13.9779987,15.5,13.9779987
			c-0.0570002,0-0.1140003,0.0030003-0.1709995,0.0039997v13.585001c0.0570002,0.0009995,0.1140003,0.0030003,0.1709995,0.0030003
			C19.789999,27.5699997,23.5539989,25.3299999,25.6949997,21.9569988z"/>
		<path class="st2" d="M19.6509991,9.052c0-2.2919998-1.8579998-4.151-4.151-4.151
			c-0.0570002,0-0.1140003,0.0019999-0.1710005,0.0040002V13.198c0.0570002,0.0019999,0.1140003,0.0039997,0.1709995,0.0039997
			C17.7919998,13.2030001,19.6509991,11.3449993,19.6509991,9.052z"/>
	</g>
</g>
</svg>
