<?xml version="1.0" encoding="utf-8"?>
<!-- Generator: Adobe Illustrator 21.1.0, SVG Export Plug-In . SVG Version: 6.00 Build 0)  -->
<svg version="1.1" id="Layer_1" xmlns="http://www.w3.org/2000/svg" xmlns:xlink="http://www.w3.org/1999/xlink" x="0px" y="0px"
	 viewBox="0 0 31 31" style="enable-background:new 0 0 31 31;" xml:space="preserve">
<style type="text/css">
	.st0{fill:none;stroke:#1D1D1B;stroke-miterlimit:10;}
	.st1{fill:#3C3C3B;}
	.st2{fill:#878787;}
</style>
<g>
	<circle class="st0" cx="15.5" cy="15.5" r="15"/>
	<g>
		<path class="st1" d="M10.0219994,14.7409992c-0.8430004,0-1.526,0.6829996-1.526,1.5270004v8.4440002
			c0,0.8430004,0.684,1.5259991,1.526,1.5259991h5.4610004V14.7409992H10.0219994z"/>
		<path class="st1" d="M13.6069994,4.7619996c-1.79,0-3.2449999,1.4559999-3.2449999,3.2450004v5.8920002h1.5270004V8.007
			c0-0.9480004,0.7709999-1.7190003,1.7189999-1.7190003h1.8769999v-1.526H13.6069994z"/>
		<path class="st2" d="M22.5039997,24.7119999v-8.4440002c0-0.8430004-0.6830006-1.5270004-1.5259991-1.5270004h-5.4949999
			V26.237999h5.4949999C21.8209991,26.237999,22.5039997,25.5550003,22.5039997,24.7119999z"/>
		<path class="st2" d="M19.1119995,8.007v2.8389997h1.5270004V8.007c0-1.7890005-1.4559994-3.2450004-3.2449989-3.2450004
			h-1.9099998v1.526h1.9099998C18.3409996,6.2879996,19.1119995,7.0589995,19.1119995,8.007z"/>
	</g>
</g>
</svg>
