<?xml version="1.0" encoding="utf-8"?>
<!-- Generator: Adobe Illustrator 21.1.0, SVG Export Plug-In . SVG Version: 6.00 Build 0)  -->
<svg version="1.1" id="Layer_1" xmlns="http://www.w3.org/2000/svg" xmlns:xlink="http://www.w3.org/1999/xlink" x="0px" y="0px"
	 viewBox="0 0 31 15.606" style="enable-background:new 0 0 31 15.606;" xml:space="preserve">
<style type="text/css">
	.st0{fill:#1D1D1B;}
</style>
<path class="st0" d="M10.744,15.606H7.43V5.004h3.313V15.606z M9.002,3.678H8.978c-1.199,0-1.976-0.81-1.976-1.837
	C7.002,0.794,7.803,0,9.025,0c1.222,0,1.974,0.792,1.998,1.838C11.023,2.865,10.247,3.678,9.002,3.678z M23.998,15.606h-3.757V10.12
	c0-1.436-0.587-2.416-1.88-2.416c-0.989,0-1.538,0.661-1.794,1.299c-0.096,0.228-0.081,0.547-0.081,0.867v5.737h-3.722
	c0,0,0.048-9.718,0-10.602h3.722v1.664c0.22-0.727,1.409-1.766,3.307-1.766c2.354,0,4.204,1.525,4.204,4.809V15.606z"/>
</svg>
