<?xml version="1.0" encoding="utf-8"?>
<!-- Generator: Adobe Illustrator 21.1.0, SVG Export Plug-In . SVG Version: 6.00 Build 0)  -->
<svg version="1.1" id="Layer_1" xmlns="http://www.w3.org/2000/svg" xmlns:xlink="http://www.w3.org/1999/xlink" x="0px" y="0px"
	 viewBox="0 0 30.846 30.846" style="enable-background:new 0 0 30.846 30.846;" xml:space="preserve">
<style type="text/css">
	.st0{fill:none;stroke:#69B42E;stroke-width:0.8457;stroke-miterlimit:10;}
	.st1{fill:#3C3C3B;}
	.st2{fill:#3F701B;}
	.st3{fill:#69B42E;}
</style>
<g>
	<circle class="st0" cx="15.423" cy="15.423" r="15"/>
	<g>
		<path class="st1" d="M15.423,13.902c-0.057,0-0.114,0.003-0.171,0.004c-4.854,0.078-8.907,3.447-10.024,7.975
			c2.112,3.327,5.805,5.551,10.024,5.609c0.057,0.001,0.114,0.003,0.171,0.003c4.29,0,8.054-2.24,10.195-5.612
			C24.487,17.299,20.353,13.902,15.423,13.902z"/>
		<path class="st2" d="M5.228,21.88c2.112,3.327,5.805,5.551,10.024,5.609V13.905C10.398,13.983,6.345,17.353,5.228,21.88z"/>
		<path class="st2" d="M11.272,8.975c0,2.235,1.767,4.057,3.98,4.147V4.829C13.039,4.918,11.272,6.74,11.272,8.975z"/>
		<path class="st3" d="M25.618,21.88c-1.13-4.581-5.265-7.979-10.195-7.979c-0.057,0-0.114,0.003-0.171,0.004V27.49
			c0.057,0.001,0.114,0.003,0.171,0.003C19.713,27.493,23.477,25.253,25.618,21.88z"/>
		<path class="st3" d="M19.574,8.975c0-2.292-1.858-4.151-4.151-4.151c-0.057,0-0.114,0.002-0.171,0.004v8.293
			c0.057,0.002,0.114,0.004,0.171,0.004C17.715,13.126,19.574,11.268,19.574,8.975z"/>
	</g>
</g>
</svg>
