<?xml version="1.0" encoding="utf-8"?>
<!-- Generator: Adobe Illustrator 21.1.0, SVG Export Plug-In . SVG Version: 6.00 Build 0)  -->
<svg version="1.1" id="Layer_1" xmlns="http://www.w3.org/2000/svg" xmlns:xlink="http://www.w3.org/1999/xlink" x="0px" y="0px"
	 viewBox="0 0 35 17" style="enable-background:new 0 0 35 17;" xml:space="preserve">
<style type="text/css">
	.st0{fill:#1D1D1B;}
</style>
<path class="st0" d="M27.959,2.013c-0.769,0.341-1.597,0.572-2.465,0.676c0.887-0.531,1.567-1.372,1.887-2.373
	c-0.83,0.492-1.747,0.848-2.726,1.04C23.874,0.521,22.758,0,21.523,0c-2.369,0-4.29,1.922-4.29,4.291
	c0,0.337,0.037,0.664,0.11,0.977c-3.567-0.179-6.728-1.886-8.846-4.484C8.128,1.42,7.916,2.157,7.916,2.944
	c0,1.487,0.758,2.802,1.91,3.572C9.122,6.494,8.46,6.299,7.881,5.98v0.053c0,2.08,1.479,3.815,3.444,4.208
	c-0.36,0.101-0.739,0.151-1.131,0.151c-0.276,0-0.546-0.026-0.807-0.076c0.546,1.704,2.13,2.946,4.008,2.979
	c-1.469,1.152-3.32,1.838-5.33,1.838c-0.346,0-0.689-0.019-1.024-0.059C8.94,16.289,11.196,17,13.619,17
	c7.895,0,12.211-6.538,12.211-12.21c0-0.187-0.004-0.372-0.011-0.555C26.657,3.629,27.386,2.873,27.959,2.013"/>
</svg>
