<?xml version="1.0" encoding="utf-8"?>
<!-- Generator: Adobe Illustrator 21.1.0, SVG Export Plug-In . SVG Version: 6.00 Build 0)  -->
<svg version="1.1" id="Layer_1" xmlns="http://www.w3.org/2000/svg" xmlns:xlink="http://www.w3.org/1999/xlink" x="0px" y="0px"
	 viewBox="0 0 11 13.452" style="enable-background:new 0 0 11 13.452;" xml:space="preserve">
<style type="text/css">
	.st0{fill:#E40233;}
</style>
<path class="st0" d="M9.777,6.109c0.087,0.005,0.136,0.01,0.186,0.011c0.701,0.019,1.036,0.362,1.036,1.071
	c0.002,1.537,0.001,3.075,0,4.612c0,0.204,0.001,0.407,0,0.611c-0.005,0.691-0.345,1.036-1.033,1.036
	c-2.942,0.002-5.885,0.001-8.827,0.001c-0.081,0-0.163,0.002-0.244-0.002C0.39,13.424,0.014,13.082,0.01,12.58
	c-0.013-1.853-0.013-3.706-0.002-5.559c0.003-0.524,0.395-0.88,0.926-0.899c0.081-0.003,0.162,0,0.29,0
	c0-0.14-0.004-0.268,0.001-0.396c0.028-0.772-0.052-1.567,0.109-2.31C1.718,1.648,2.848,0.494,4.62,0.11
	c1.698-0.368,3.129,0.193,4.233,1.545C9.483,2.426,9.771,3.32,9.776,4.31C9.779,4.899,9.777,5.489,9.777,6.109z M3.072,6.099
	c1.634,0,3.245,0,4.849,0c0-0.722,0.055-1.427-0.012-2.121c-0.12-1.239-1.176-2.142-2.411-2.14C4.251,1.84,3.193,2.761,3.083,4.011
	C3.023,4.696,3.072,5.39,3.072,6.099z"/>
</svg>
