<?xml version="1.0" standalone="no"?> <!DOCTYPE svg PUBLIC "-//W3C//DTD SVG 1.0//EN" "http://www.w3.org/TR/2001/REC-SVG-20010904/DTD/svg10.dtd" > <svg xmlns="http://www.w3.org/2000/svg" width="100%" height="100%">
<defs >
<font id="Kommissar-Bold" horiz-adv-x="408" ><font-face
    font-family=""
    units-per-em="1000"
    panose-1="2 0 0 0 0 0 0 0 0 0"
    ascent="867"
    descent="-133"
    alphabetic="0" />
<missing-glyph horiz-adv-x="100" />
<glyph unicode=" " glyph-name="space" horiz-adv-x="100" />
<glyph unicode="!" glyph-name="exclam" horiz-adv-x="212" d="M18 208V728H194V208H18ZM194 172V0H18V172H194Z" />
<glyph unicode="&quot;" glyph-name="quotedbl" horiz-adv-x="313" d="M142 728V509H16V728H142ZM299 728V509H172V728H299Z" />
<glyph unicode="#" glyph-name="numbersign" horiz-adv-x="474" d="M246 180H207L197 0H52L62 180H8V340H71L74 406H21V566H83L92 728H238L228 566H267L276 728H422L412 566H466V406H403L400 340H454V180H391L381 0H236L246 180ZM216 340H255L258 406H219L216 340Z" />
<glyph unicode="$" glyph-name="dollar" horiz-adv-x="468" d="M321 444Q361 429 387 409T430 363T452 308T458 247V204Q458 123 420 73T320 2V-80H144V3Q84 23 47 71T10 194V245H202V184Q202 161 210 151T231 141H234Q247 141 255 151T263 184V221Q263 244 256
257T225 278L145 307Q74 334 43 380T12 491V542Q12 612 48 659T144 725V808H320V726Q380 706 416 660T453 543V498H262V548Q262 587 234 587H231Q203 587 203 548V525Q203 502 210 492T241 473L321 444Z" />
<glyph unicode="%" glyph-name="percent" horiz-adv-x="601" d="M9 595Q9 667 46 702T146 737H155Q218 737 255 702T293 595V521Q293 449 256 414T156 378H146Q83 378 46 413T9 521V595ZM171 607Q171 621 166 628T152 635H150Q142 635 137 629T131 607V507Q131
492 136 486T150 480H152Q160 480 165 486T171 507V607ZM474 728H585L127 0H16L474 728ZM308 208Q308 279 345 314T445 350H454Q517 350 555 315T593 208V134Q593 62 555 27T455 -9H445Q382 -9 345 26T308 134V208ZM470 221Q470 235 465 241T452 248H449Q441 248
436 242T431 221V120Q431 105 436 99T449 93H452Q459 93 464 99T470 120V221Z" />
<glyph unicode="&amp;" glyph-name="ampersand" horiz-adv-x="498" d="M491 312H451V0H221Q124 0 69 46T13 194V218Q13 278 34 321T109 382Q63 398 43 437T22 534V546Q22 592 37 627T81 687T148 725T235 738H244Q290 738 328 725T394 687T436 624T451 540V474H273V549Q273
587 246 587H243Q216 587 216 542V485Q216 461 224 449T255 436H491V312ZM273 136V312H255Q232 312 223 300T213 262V183Q213 136 243 136H273Z" />
<glyph unicode="&apos;" glyph-name="quotesingle" horiz-adv-x="159" d="M143 728V509H16V728H143Z" />
<glyph unicode="(" glyph-name="parenleft" horiz-adv-x="233" d="M16 526Q16 638 69 693T210 749H221V606H220Q206 606 195 591T183 547V83Q183 54 194 39T220 24H221V-119H211Q123 -119 70 -63T16 104V526Z" />
<glyph unicode=")" glyph-name="parenright" horiz-adv-x="233" d="M217 104Q217 -7 164 -63T22 -119H12V24H13Q27 24 38 39T50 83V547Q50 576 39 591T13 606H12V749H23Q111 749 164 694T217 526V104Z" />
<glyph unicode="*" glyph-name="asterisk" horiz-adv-x="317" d="M253 471L203 512L214 449H104L114 512L65 471L10 565L72 589L10 614L64 707L114 666L104 730H212L202 665L253 707L307 615L244 590L308 565L253 471Z" />
<glyph unicode="+" glyph-name="plus" horiz-adv-x="373" d="M264 286V168H110V286H15V428H110V545H264V428H358V286H264Z" />
<glyph unicode="," glyph-name="comma" horiz-adv-x="211" d="M195 172L160 -75H18V172H195Z" />
<glyph unicode="-" glyph-name="hyphen" horiz-adv-x="289" d="M15 397H273V228H15V397Z" />
<glyph unicode="." glyph-name="period" horiz-adv-x="213" d="M196 172V0H18V172H196Z" />
<glyph unicode="/" glyph-name="slash" horiz-adv-x="294" d="M131 750H283L145 -121H-7L131 750Z" />
<glyph unicode="0" glyph-name="zero" horiz-adv-x="477" d="M15 536Q15 585 32 622T78 685T148 724T234 738H243Q289 738 329 725T398 686T445 623T462 536V192Q462 143 445 106T399 43T329 4T243 -10H234Q188 -10 148 3T79 42T32 105T15 192V536ZM269 544Q269
567 261 577T240 587H237Q223 587 216 577T208 544V184Q208 161 215 151T237 141H240Q253 141 261 151T269 184V544Z" />
<glyph unicode="1" glyph-name="one" horiz-adv-x="261" d="M51 573H8V728H243V0H51V573Z" />
<glyph unicode="2" glyph-name="two" horiz-adv-x="468" d="M226 437Q247 450 255 461T263 495V549Q263 588 235 588H232Q204 588 204 549V474H13V544Q13 591 29 627T75 688T143 725T229 738H238Q284 738 323 726T392 689T437 624T454 531V487Q454 451 445 423T420
373T382 333T333 296L236 230Q217 219 211 210T204 183V157H454V0H13V159Q13 204 18 234T36 287T70 328T124 368L226 437Z" />
<glyph unicode="3" glyph-name="three" horiz-adv-x="471" d="M148 436H213Q237 436 247 449T258 487V544Q258 567 250 577T229 587H227Q213 587 206 577T198 544V474H13V537Q13 587 29 624T74 687T142 725T229 738H237Q282 738 321 726T390 689T435 628T452 545V531Q452
468 431 430T348 381Q380 375 401 361T435 325T453 278T459 220V189Q459 140 442 103T396 41T327 3T240 -10H231Q186 -10 147 2T77 40T30 103T13 191V267H198V184Q198 161 206 151T227 141H230Q243 141 251 151T259 184V260Q259 285 249 298T213 311H148V436Z"
/>
<glyph unicode="4" glyph-name="four" horiz-adv-x="464" d="M419 95V0H238V94H7V231L161 728H419V238H458V95H419ZM238 238V502L176 238H238Z" />
<glyph unicode="5" glyph-name="five" horiz-adv-x="472" d="M258 497Q368 497 414 444T461 291V204Q461 150 444 110T398 43T329 3T243 -10H234Q187 -10 148 3T79 41T33 105T16 194V267H208V184Q208 161 215 151T236 141H239Q252 141 259 151T266 184V287Q266
321 254 336T209 351H17V728H454V570H193V497H258Z" />
<glyph unicode="6" glyph-name="six" horiz-adv-x="470" d="M205 435H248Q355 435 407 392T459 249V192Q459 143 442 106T395 43T325 4T240 -10H231Q186 -10 146 3T77 42T31 106T14 194V537Q14 585 30 622T76 685T144 724T229 738H239Q284 738 322 725T389 686T434
623T451 537V474H266V544Q266 567 258 577T237 587H235Q221 587 213 577T205 544V435ZM205 299V184Q205 161 213 151T234 141H237Q250 141 258 151T266 184V248Q266 276 258 287T227 299H205Z" />
<glyph unicode="7" glyph-name="seven" horiz-adv-x="441" d="M235 573H5V728H435V604L283 0H77L235 573Z" />
<glyph unicode="8" glyph-name="eight" horiz-adv-x="463" d="M14 551Q14 592 29 626T72 685T139 724T227 738H236Q284 738 323 724T390 686T433 627T449 551V536Q449 514 447 493T436 454T414 421T376 397Q399 389 414 374T438 341T451 300T455 256V192Q455 143
438 106T392 43T322 4T236 -10H227Q181 -10 142 3T73 42T26 105T9 192V256Q9 278 12 300T25 340T49 374T87 397Q64 406 50 420T28 453T17 493T14 536V551ZM262 285Q262 306 255 316T235 328H229Q201 326 201 285V184Q201 161 208 151T230 141H233Q247 141 254 151T262
184V285ZM262 545Q262 568 255 577T233 587H230Q217 587 210 578T202 545V498Q202 475 209 465T230 455H235Q247 456 254 466T262 498V545Z" />
<glyph unicode="9" glyph-name="nine" horiz-adv-x="470" d="M235 141Q249 141 256 151T264 184V293H222Q115 293 63 336T10 479V536Q10 585 27 622T74 685T144 724T230 738H239Q284 738 323 725T392 686T438 622T455 534V191Q455 143 439 106T394 43T326 4T241
-10H231Q186 -10 147 3T80 42T35 105T19 191V254H204V184Q204 161 211 151T232 141H235ZM204 480Q204 452 212 441T243 429H264V544Q264 567 256 577T235 587H233Q220 587 212 577T204 544V480Z" />
<glyph unicode=":" glyph-name="colon" horiz-adv-x="213" d="M196 172V0H18V172H196ZM196 521V349H18V521H196Z" />
<glyph unicode=";" glyph-name="semicolon" horiz-adv-x="213" d="M195 172L160 -75H18V172H195ZM196 520V348H18V520H196Z" />
<glyph unicode="&lt;" glyph-name="less" horiz-adv-x="377" d="M360 390L190 344L360 298V112L12 254V436L360 578V390Z" />
<glyph unicode="=" glyph-name="equal" horiz-adv-x="370" d="M355 517V377H15V517H355ZM355 343V203H15V343H355Z" />
<glyph unicode="&gt;" glyph-name="greater" horiz-adv-x="377" d="M17 578L365 436V254L17 112V298L187 344L17 390V578Z" />
<glyph unicode="?" glyph-name="question" horiz-adv-x="455" d="M203 419Q232 419 243 433T254 476V549Q254 588 228 588H225Q200 588 200 549V475H10V543Q10 589 26 625T70 686T137 724T222 738H231Q277 738 316 725T383 686T428 625T444 542V458Q444 419 433
389T402 338T356 307T300 296H298V202H122V419H203ZM298 172V0H121V172H298Z" />
<glyph unicode="@" glyph-name="at" horiz-adv-x="704" d="M550 78Q579 79 596 102T614 179V446Q614 558 561 611T390 665H350Q229 665 160 598T90 393V182Q90 45 157 -19T344 -83H533V-149H344Q273 -149 212 -131T107 -73T37 27T12 172V403Q12 487 37 549T107
651T214 712T350 732H391Q463 732 519 716T614 664T673 572T693 438V177Q693 132 680 99T645 43T591 11T523 0H324Q238 0 196 51T153 194V372Q153 464 194 516T321 569H550V78ZM329 182Q329 159 335 149T357 139H373V430H357Q343 430 336 421T329 388V182Z" />
<glyph unicode="A" glyph-name="A" horiz-adv-x="469" d="M-4 0L99 728H364L473 0H274L267 74H189L184 0H-4ZM201 230H252L224 537L201 230Z" />
<glyph unicode="B" glyph-name="B" horiz-adv-x="480" d="M268 728Q368 728 415 682T462 557V531Q462 477 444 441T374 390Q426 376 447 336T468 235V188Q468 146 456 112T418 53T356 14T269 0H18V728H268ZM240 137Q270 137 270 184V267Q270 312 240 312H210V137H240ZM240
446Q268 446 268 490V547Q268 591 239 591H210V446H240Z" />
<glyph unicode="C" glyph-name="C" horiz-adv-x="470" d="M455 192Q455 143 439 106T395 43T327 4T242 -10H233Q187 -10 147 3T78 42T32 105T15 192V537Q15 585 32 622T78 685T147 724T233 738H243Q288 738 327 725T394 686T439 623T455 537V474H270V544Q270 567
262 577T241 587H238Q224 587 216 577T208 544V184Q208 161 216 151T238 141H241Q254 141 262 151T270 184V267H455V192Z" />
<glyph unicode="D" glyph-name="D" horiz-adv-x="479" d="M249 728Q353 728 409 673T465 508V212Q465 103 409 52T249 0H18V728H249ZM242 137Q271 137 271 182V546Q271 591 242 591H210V137H242Z" />
<glyph unicode="E" glyph-name="E" horiz-adv-x="351" d="M18 0V728H341V581H210V467H328V321H210V147H341V0H18Z" />
<glyph unicode="F" glyph-name="F" horiz-adv-x="348" d="M210 313V0H18V728H341V581H210V460H331V313H210Z" />
<glyph unicode="G" glyph-name="G" horiz-adv-x="470" d="M233 0Q185 0 146 12T77 50T32 112T16 200V537Q16 585 32 622T78 685T147 724T233 738H243Q288 738 327 725T394 686T439 623T455 537V474H270V557Q270 580 262 590T240 600H237Q223 600 216 590T208 557V192Q208
169 215 160T238 150H270V272H240V392H454V0H233Z" />
<glyph unicode="H" glyph-name="H" horiz-adv-x="483" d="M272 310H210V0H18V728H210V466H272V728H465V0H272V310Z" />
<glyph unicode="I" glyph-name="I" horiz-adv-x="228" d="M18 728H210V0H18V728Z" />
<glyph unicode="J" glyph-name="J" horiz-adv-x="289" d="M273 196Q273 99 223 50T92 0H7V146H34Q80 146 80 207V728H273V196Z" />
<glyph unicode="K" glyph-name="K" horiz-adv-x="486" d="M210 320V0H18V728H210V433L275 728H478L386 387L481 0H275L210 320Z" />
<glyph unicode="L" glyph-name="L" horiz-adv-x="345" d="M18 728H210V156H335V0H18V728Z" />
<glyph unicode="M" glyph-name="M" horiz-adv-x="624" d="M180 461V0H18V728H276L314 357L355 728H606V0H441V461L389 0H232L180 461Z" />
<glyph unicode="N" glyph-name="N" horiz-adv-x="498" d="M193 385V0H18V728H226L305 339V728H480V0H274L193 385Z" />
<glyph unicode="O" glyph-name="O" horiz-adv-x="478" d="M15 536Q15 585 32 622T78 685T148 724T234 738H244Q290 738 330 725T399 686T446 623T463 536V192Q463 143 446 106T400 43T330 4T244 -10H234Q188 -10 148 3T79 42T32 105T15 192V536ZM270 544Q270 567
262 577T241 587H237Q224 587 216 577T208 544V184Q208 161 216 151T237 141H241Q253 141 261 151T270 184V544Z" />
<glyph unicode="P" glyph-name="P" horiz-adv-x="467" d="M210 410H239Q268 410 268 462V547Q268 591 239 591H210V410ZM18 728H247Q355 728 408 678T462 518V486Q462 377 409 325T247 273H210V0H18V728Z" />
<glyph unicode="Q" glyph-name="Q" horiz-adv-x="478" d="M15 536Q15 585 32 622T78 685T148 724T234 738H244Q290 738 330 725T399 686T446 623T463 536V192Q463 117 424 69T323 1V-94H155V1Q93 20 54 68T15 192V536ZM270 544Q270 567 262 577T241 587H237Q224
587 216 577T208 544V184Q208 161 216 151T237 141H241Q253 141 261 151T270 184V544Z" />
<glyph unicode="R" glyph-name="R" horiz-adv-x="476" d="M210 0H18V728H276Q371 728 416 679T462 547V536Q462 473 443 434T374 380Q422 368 440 335T459 245V0H266V253Q266 289 240 289H210V0ZM240 426Q268 426 268 476V548Q268 591 240 591H210V426H240Z" />
<glyph unicode="S" glyph-name="S" horiz-adv-x="466" d="M320 444Q396 416 426 364T457 247V204Q457 151 440 111T392 44T322 4T236 -10H227Q181 -10 141 3T72 42T26 106T9 194V245H201V184Q201 161 209 151T230 141H233Q246 141 254 151T262 184V221Q262 244
255 256T225 277L143 307Q74 330 43 378T11 491V542Q11 588 27 624T73 686T141 725T227 738H236Q282 738 321 725T390 687T435 626T452 543V498H261V548Q261 587 233 587H230Q202 587 202 548V525Q202 502 209 492T240 473L320 444Z" />
<glyph unicode="T" glyph-name="T" horiz-adv-x="412" d="M303 572V0H110V572H11V728H402V572H303Z" />
<glyph unicode="U" glyph-name="U" horiz-adv-x="478" d="M463 192Q463 143 446 106T400 43T330 4T244 -10H234Q188 -10 148 3T79 42T32 105T15 192V728H208V184Q208 161 216 151T237 141H241Q253 141 261 151T270 184V728H463V192Z" />
<glyph unicode="V" glyph-name="V" horiz-adv-x="488" d="M491 728L385 0H106L-3 728H198L245 160L293 728H491Z" />
<glyph unicode="W" glyph-name="W" horiz-adv-x="707" d="M704 728L638 0H397L354 405L308 0H76L3 728H200L221 285L276 728H444L496 279L518 728H704Z" />
<glyph unicode="X" glyph-name="X" horiz-adv-x="483" d="M290 0L242 251L193 0H-3L102 383L4 728H200L242 483L286 728H481L381 386L486 0H290Z" />
<glyph unicode="Y" glyph-name="Y" horiz-adv-x="460" d="M331 248V0H138V244L-3 728H196L235 474L270 728H463L331 248Z" />
<glyph unicode="Z" glyph-name="Z" horiz-adv-x="413" d="M12 0V156L191 572H13V728H400V572L222 156H400V0H12Z" />
<glyph unicode="[" glyph-name="bracketleft" horiz-adv-x="232" d="M219 604H179V25H219V-118H14V748H219V604Z" />
<glyph unicode="\" glyph-name="backslash" horiz-adv-x="295" d="M301 -121H149L11 750H163L301 -121Z" />
<glyph unicode="]" glyph-name="bracketright" horiz-adv-x="232" d="M12 748H216V-118H12V25H51V604H12V748Z" />
<glyph unicode="^" glyph-name="asciicircum" horiz-adv-x="468" d="M283 375L234 542L189 375H1L139 728H328L467 375H283Z" />
<glyph unicode="_" glyph-name="underscore" horiz-adv-x="395" d="M4 -155V-37H391V-155H4Z" />
<glyph unicode="`" glyph-name="grave" horiz-adv-x="400" d="M308 592L92 635V759L308 705V592Z" />
<glyph unicode="a" glyph-name="a" horiz-adv-x="428" d="M171 0Q132 0 102 13T51 50T20 104T9 170V180Q9 252 50 292T171 333H235V399Q235 429 213 429H210Q201 429 195 421T189 399V359H29V403Q29 447 43 480T81 535T140 568T216 579H220Q262 579 297 569T357
536T397 482T411 404V0H171ZM235 128V225H216Q200 225 193 216T185 185V168Q185 146 192 137T216 128H235Z" />
<glyph unicode="b" glyph-name="b" horiz-adv-x="436" d="M17 728H194V569H263Q344 569 383 518T422 380V188Q422 102 383 51T263 0H17V728ZM194 139H217Q232 139 238 148T245 180V388Q245 411 239 420T217 430H194V139Z" />
<glyph unicode="c" glyph-name="c" horiz-adv-x="424" d="M413 176Q413 131 398 97T356 38T293 2T215 -10H210Q168 -10 133 2T71 38T30 96T15 176V393Q15 438 30 472T71 531T132 567T210 579H215Q257 579 293 567T356 531T398 473T413 393V359H243V395Q243 412
236 420T219 429H216Q191 429 191 395V174Q191 140 216 140H219Q229 140 236 148T243 174V217H413V176Z" />
<glyph unicode="d" glyph-name="d" horiz-adv-x="436" d="M420 0H174Q93 0 54 51T15 188V380Q15 466 54 517T174 569H243V728H420V0ZM243 430H220Q205 430 198 421T191 388V180Q191 157 198 148T220 139H243V430Z" />
<glyph unicode="e" glyph-name="e" horiz-adv-x="425" d="M191 246V174Q191 157 198 149T217 140H219Q230 140 236 148T243 174V217H411V176Q411 131 396 97T355 38T292 2T214 -10H210Q168 -10 133 2T71 38T30 96T15 176V394Q15 439 29 473T70 531T132 567T210
579H215Q257 579 293 567T355 531T396 473T411 393V246H191ZM191 353H243V398Q243 415 236 423T219 432H216Q191 432 191 398V353Z" />
<glyph unicode="f" glyph-name="f" horiz-adv-x="265" d="M214 424V0H37V424H7V569H37V576Q37 607 46 635T73 683T121 716T190 728H257V611H244Q227 611 221 604T214 579V569H257V424H214Z" />
<glyph unicode="g" glyph-name="g" horiz-adv-x="435" d="M243 430H220Q205 430 198 421T191 389V228Q191 205 198 197T221 188H243V430ZM243 61H174Q96 61 56 112T15 249V369Q15 423 25 461T59 523T120 558T212 569H420V36Q420 -12 405 -46T362 -103T299 -136T223
-147H219Q178 -147 143 -136T80 -103T38 -48T22 30V40H193V19Q193 6 200 -1T217 -8H220Q230 -8 236 -1T243 20V61Z" />
<glyph unicode="h" glyph-name="h" horiz-adv-x="436" d="M245 390Q245 412 239 421T217 430H194V0H17V728H194V569H263Q343 569 382 518T421 382V-1L245 0V390Z" />
<glyph unicode="i" glyph-name="i" horiz-adv-x="211" d="M194 569V0H17V569H194ZM17 596V722H194V596H17Z" />
<glyph unicode="j" glyph-name="j" horiz-adv-x="212" d="M-28 -27H-15Q18 -27 18 16V569H195V32Q195 -45 154 -91T32 -137H-28V-27ZM18 596V722H195V596H18Z" />
<glyph unicode="k" glyph-name="k" horiz-adv-x="443" d="M441 569L359 294L444 0H254L194 229V0H17V728H194V342L256 569H441Z" />
<glyph unicode="l" glyph-name="l" horiz-adv-x="211" d="M194 0H17V728H194V0Z" />
<glyph unicode="m" glyph-name="m" horiz-adv-x="649" d="M457 390Q457 412 451 421T431 430H414V0H237V430H194V0H17V569H475Q553 569 593 518T634 382V0H457V390Z" />
<glyph unicode="n" glyph-name="n" horiz-adv-x="438" d="M246 390Q246 412 239 421T218 430H194V0H18V569H263Q344 569 383 518T422 382V0H246V390Z" />
<glyph unicode="o" glyph-name="o" horiz-adv-x="436" d="M191 174Q191 157 198 149T217 140H219Q230 140 237 148T245 174V395Q245 412 238 420T219 429H217Q206 429 199 421T191 395V174ZM15 393Q15 438 30 472T73 531T136 567T215 579H220Q262 579 298 567T362
531T405 473T421 393V176Q421 131 406 97T363 38T299 2T220 -10H215Q173 -10 137 2T73 38T31 96T15 176V393Z" />
<glyph unicode="p" glyph-name="p" horiz-adv-x="436" d="M17 569H263Q344 569 383 518T422 381V189Q422 103 383 52T263 0H194V-137H17V569ZM194 139H217Q232 139 238 148T245 181V389Q245 412 239 421T217 430H194V139Z" />
<glyph unicode="q" glyph-name="q" horiz-adv-x="436" d="M420 -137H243V0H174Q93 0 54 51T15 189V381Q15 467 54 518T174 569H420V-137ZM243 430H220Q205 430 198 421T191 389V181Q191 158 198 149T220 139H243V430Z" />
<glyph unicode="r" glyph-name="r" horiz-adv-x="279" d="M269 424H237Q194 424 194 369V0H17V395Q17 477 56 523T179 569H269V424Z" />
<glyph unicode="s" glyph-name="s" horiz-adv-x="420" d="M272 356Q306 345 331 332T374 299T399 251T408 182V169Q408 124 393 90T352 34T291 1T215 -10H210Q169 -10 134 0T72 31T30 83T15 157V182H184V156Q184 141 190 133T208 124H211Q221 124 228 132T235
154V166Q235 195 209 204L146 225Q112 237 87 250T45 282T20 328T12 396V404Q12 448 27 481T68 535T130 568T206 579H211Q251 579 286 569T346 537T387 485T402 412V389H234V410Q234 426 228 434T210 443H208Q184 443 184 414V410Q184 386 209 377L272 356Z" />
<glyph unicode="t" glyph-name="t" horiz-adv-x="280" d="M225 424V0H48V424H7V569H48V686H225V569H272V424H225Z" />
<glyph unicode="u" glyph-name="u" horiz-adv-x="436" d="M192 179Q192 157 198 148T219 139H243V569H419V0H174Q93 0 54 51T15 187V569H192V179Z" />
<glyph unicode="v" glyph-name="v" horiz-adv-x="452" d="M452 569L336 0H118L1 569H188L227 185L267 569H452Z" />
<glyph unicode="w" glyph-name="w" horiz-adv-x="642" d="M641 569L559 0H357L321 296L284 0H85L1 569H188L207 211L242 569H402L438 205L457 569H641Z" />
<glyph unicode="x" glyph-name="x" horiz-adv-x="448" d="M445 569L366 304L448 0H263L224 197L186 0H0L83 305L2 569H188L225 368L262 569H445Z" />
<glyph unicode="y" glyph-name="y" horiz-adv-x="446" d="M445 569L264 -126H84L140 70L0 569H186L224 311L262 569H445Z" />
<glyph unicode="z" glyph-name="z" horiz-adv-x="366" d="M11 430V569H351V430L206 139H355V0H10V139L158 430H11Z" />
<glyph unicode="{" glyph-name="braceleft" horiz-adv-x="283" d="M274 -119H249Q162 -119 115 -76T70 67L72 143Q74 192 60 220T6 248V389Q46 389 60 417T72 494L70 563Q66 661 114 705T249 749H274V605Q255 604 244 594T234 557L237 472Q238 443 235 418T223
372T199 338T160 320Q183 316 198 302T222 267T234 220T237 166L234 73Q233 47 244 37T274 25V-119Z" />
<glyph unicode="|" glyph-name="bar" horiz-adv-x="190" d="M18 746H172V-119H18V746Z" />
<glyph unicode="}" glyph-name="braceright" horiz-adv-x="283" d="M8 25H9Q28 26 39 36T49 73L46 166Q45 194 48 220T60 267T84 302T123 320Q100 324 85 337T61 371T49 417T46 472L49 557Q50 583 39 593T9 605H8V749H34Q121 749 169 705T213 563L211 494Q209
445 223 417T277 389V248Q237 248 223 220T211 143L213 67Q216 -32 169 -75T34 -119H8V25Z" />
<glyph unicode="~" glyph-name="asciitilde" horiz-adv-x="351" d="M247 217Q227 217 212 221T184 232T163 242T145 247Q135 247 132 240T129 219H9V277Q9 353 32 381T103 410Q124 410 139 406T166 395T187 385T206 380Q223 380 223 409H342V350Q342 312 336 287T319
246T289 224T247 217Z" />
<glyph unicode="&#xa0;" glyph-name="uni00A0" horiz-adv-x="100" />
<glyph unicode="&#xa1;" glyph-name="exclamdown" horiz-adv-x="212" d="M194 394V-126H18V394H194ZM18 430V602H194V430H18Z" />
<glyph unicode="&#xa2;" glyph-name="cent" horiz-adv-x="424" d="M130 3Q78 21 47 65T15 176V393Q15 460 46 503T130 566V648H295V566Q348 548 380 504T413 393V359H243V395Q243 412 236 420T219 429H216Q191 429 191 395V174Q191 140 216 140H219Q229 140 236
148T243 174V217H413V176Q413 109 381 65T295 2V-79H130V3Z" />
<glyph unicode="&#xa3;" glyph-name="sterling" horiz-adv-x="468" d="M8 147H44V262H8V401H44V540Q44 587 59 624T103 686T168 725T250 738H259Q302 738 339 725T402 687T444 625T459 541V474H282V548Q282 587 257 587H254Q229 587 229 548V401H389V262H229V147H460V0H8V147Z"
/>
<glyph unicode="&#xa5;" glyph-name="yen" horiz-adv-x="461" d="M431 75H332V0H139V75H40V188H139V217H40V330H116L-5 728H195L236 453L273 728H466L352 330H431V217H332V188H431V75Z" />
<glyph unicode="&#xa6;" glyph-name="brokenbar" horiz-adv-x="190" d="M18 746H172V350H18V746ZM18 310H172V-119H18V310Z" />
<glyph unicode="&#xa7;" glyph-name="section" horiz-adv-x="456" d="M198 110V72Q198 52 206 43T225 34H229Q240 34 248 43T257 71V92Q257 109 248 115T221 130L163 153Q130 166 103 184T56 228T25 292T14 382V540Q14 588 29 624T72 686T138 725T221 738H231Q276
738 314 725T381 687T424 624T440 538V524H255V551Q255 571 247 580T228 590H224Q213 590 205 582T197 554V548Q197 527 206 521T236 507L294 484Q331 469 359 452T407 410T435 350T445 263V96Q445 43 429 4T384 -62T316 -101T232 -115H222Q177 -115 138 -102T71
-64T27 0T11 89V110H198ZM263 276V305Q263 340 229 353L191 368V340Q191 323 199 310T225 291L263 276Z" />
<glyph unicode="&#xa8;" glyph-name="dieresis" horiz-adv-x="410" d="M57 722H190V600H57V722ZM219 722H350V600H219V722Z" />
<glyph unicode="&#xa9;" glyph-name="copyright" horiz-adv-x="634" d="M338 434V478Q338 495 332 502T317 510H315Q307 510 301 503T294 478V247Q294 230 300 223T315 216H317Q326 216 332 223T338 247V298H467V254Q467 183 425 147T318 111H313Q280 111 253
120T205 147T173 192T161 254V473Q161 507 172 533T204 578T252 605T313 615H318Q383 615 425 579T467 473V434H338ZM11 380Q11 462 30 528T87 642T182 714T314 739H323Q393 739 448 714T543 642T602 529T623 380V346Q623 265 601 199T539 87T444 15T323 -11H314Q242
-11 186 14T91 86T32 199T11 346V380ZM86 348Q86 280 99 226T139 133T209 74T312 54H324Q379 54 421 74T491 133T535 225T550 348V377Q550 518 492 595T324 674H312Q192 672 139 595T86 377V348Z" />
<glyph unicode="&#xaa;" glyph-name="ordfeminine" horiz-adv-x="283" d="M111 387Q58 387 34 416T9 490V496Q9 538 34 564T110 590H158V625Q158 643 144 643H143Q130 643 130 626V603H20V628Q20 684 56 710T144 737H148Q206 737 239 710T273 624V387H111ZM158
466V523H146Q128 523 128 501V488Q128 466 146 466H158Z" />
<glyph unicode="&#xab;" glyph-name="guillemotleft" horiz-adv-x="430" d="M331 252L417 65H266L182 252L266 439H417L331 252ZM153 252L238 65H88L16 226V278L88 439H238L153 252Z" />
<glyph unicode="&#xae;" glyph-name="registered" horiz-adv-x="380" d="M9 536Q9 632 56 685T188 738H193Q274 738 322 685T371 536V511Q371 464 358 427T320 363T264 323T193 309H188Q106 309 58 362T9 511V536ZM61 512Q61 439 92 398T187 356H194Q253 356 286
397T320 512V534Q320 609 287 649T194 691H187Q123 690 92 650T61 534V512ZM200 409V490Q200 499 192 499H182V409H119V644H206Q236 644 251 629T266 587V582Q266 541 238 531Q254 527 260 516T266 487V409H200ZM192 548Q197 548 199 550T201 561V586Q201 598 192
598H182V548H192Z" />
<glyph unicode="&#xaf;" glyph-name="macron" horiz-adv-x="405" d="M333 603H71V717H333V603Z" />
<glyph unicode="&#xb0;" glyph-name="degree" horiz-adv-x="302" d="M9 601Q9 630 20 656T50 701T95 732T151 743Q181 743 207 732T252 702T282 656T293 601Q293 572 282 546T252 501T207 471T151 460Q121 460 95 471T50 501T20 546T9 601ZM123 601Q123 589 131
581T151 572Q164 572 172 580T180 601Q180 614 172 622T151 631Q139 631 131 623T123 601Z" />
<glyph unicode="&#xb4;" glyph-name="acute" horiz-adv-x="400" d="M93 705L308 759V635L93 592V705Z" />
<glyph unicode="&#xb6;" glyph-name="paragraph" horiz-adv-x="445" d="M427 0H317V627H288V0H180V345H173Q90 345 50 389T10 528V547Q10 641 50 684T173 728H427V0Z" />
<glyph unicode="&#xb7;" glyph-name="periodcentered" horiz-adv-x="213" d="M18 443H196V271H18V443Z" />
<glyph unicode="&#xb8;" glyph-name="cedilla" horiz-adv-x="403" d="M133 -101H183Q200 -101 200 -90V-88Q200 -77 183 -77H147V0H223V-26Q258 -27 279 -42T301 -93V-95Q301 -130 279 -148T220 -166H133V-101Z" />
<glyph unicode="&#xba;" glyph-name="ordmasculine" horiz-adv-x="296" d="M131 494Q131 474 146 474H148Q163 474 163 494V622Q163 643 148 643H146Q131 643 131 622V494ZM10 609Q10 674 48 705T145 737H149Q207 737 246 706T286 609V507Q286 475 276 451T246
411T202 387T149 379H145Q87 379 49 410T10 507V609Z" />
<glyph unicode="&#xbb;" glyph-name="guillemotright" horiz-adv-x="430" d="M97 252L13 439H163L248 252L163 65H13L97 252ZM276 252L191 439H342L414 278V226L342 65H191L276 252Z" />
<glyph unicode="&#xbc;" glyph-name="onequarter" horiz-adv-x="535" d="M378 728H487L114 0H5L378 728ZM253 125L334 347H493V129H518V47H493V0H383V47H253V125ZM61 614H22V728H176V386H61V614ZM383 129V243L351 129H383Z" />
<glyph unicode="&#xbd;" glyph-name="onehalf" horiz-adv-x="553" d="M378 728H487L114 0H5L378 728ZM402 208Q412 212 416 216T421 228V243Q421 260 408 260H406Q392 260 392 242V217H280V240Q280 291 314 320T405 350H413Q470 350 503 323T537 236V222Q537 187
518 165T457 129L405 111Q394 106 394 97V90H535V0H278V72Q278 100 282 120T297 154T322 177T358 192L402 208ZM61 614H22V728H176V386H61V614Z" />
<glyph unicode="&#xbe;" glyph-name="threequarters" horiz-adv-x="615" d="M459 728H568L195 0H86L459 728ZM333 125L414 347H573V129H598V47H573V0H463V47H333V125ZM134 484Q134 466 148 466H150Q163 466 163 483V495Q163 518 139 518H88V600H139Q163 600 163
622V632Q163 650 150 650H148Q134 650 134 631V618H22V625Q22 681 55 709T148 737H156Q214 737 246 710T279 637V633Q279 573 224 564Q259 557 273 535T287 482V477Q287 435 256 407T159 378H151Q89 378 56 405T22 487V499H134V484ZM463 129V241L431 129H463Z"
/>
<glyph unicode="&#xbf;" glyph-name="questiondown" horiz-adv-x="455" d="M252 185Q223 185 212 171T201 128V55Q201 16 227 16H230Q255 16 255 55V129H445V61Q445 15 429 -21T385 -82T318 -120T233 -134H224Q178 -134 139 -121T72 -82T27 -21T11 62V146Q11 185
22 215T53 266T99 297T155 308H157V402H333V185H252ZM157 432V604H334V432H157Z" />
<glyph unicode="&#xc0;" glyph-name="Agrave" horiz-adv-x="469" d="M-4 0L99 728H364L473 0H274L267 74H189L184 0H-4ZM201 230H252L224 537L201 230ZM340 752L115 793V908L340 856V752Z" />
<glyph unicode="&#xc1;" glyph-name="Aacute" horiz-adv-x="469" d="M-4 0L99 728H364L473 0H274L267 74H189L184 0H-4ZM201 230H252L224 537L201 230ZM115 856L340 909V793L115 752V856Z" />
<glyph unicode="&#xc2;" glyph-name="Acircumflex" horiz-adv-x="469" d="M-4 0L99 728H364L473 0H274L267 74H189L184 0H-4ZM201 230H252L224 537L201 230ZM347 849V750L229 792L110 750V849L200 900H258L347 849Z" />
<glyph unicode="&#xc3;" glyph-name="Atilde" horiz-adv-x="469" d="M-4 0L99 728H364L473 0H274L267 74H189L184 0H-4ZM201 230H252L224 537L201 230ZM92 758V794Q92 845 109 867T162 889Q197 889 218 880T260 870Q276 870 276 892H362V855Q362 804 345 783T293
761Q261 761 238 770T194 780Q178 780 178 758H92Z" />
<glyph unicode="&#xc4;" glyph-name="Adieresis" horiz-adv-x="469" d="M-4 0L99 728H364L473 0H274L267 74H189L184 0H-4ZM201 230H252L224 537L201 230ZM85 877H217V756H85V877ZM244 877H376V756H244V877Z" />
<glyph unicode="&#xc5;" glyph-name="Aring" horiz-adv-x="469" d="M-4 0L99 728H364L473 0H274L267 74H189L184 0H-4ZM201 230H252L224 537L201 230ZM331 834Q331 792 303 767T230 741Q186 741 158 766T129 834Q129 875 157 901T230 927Q274 927 302 901T331
834ZM251 834Q251 842 245 848T230 854Q221 854 215 848T209 834Q209 826 215 820T230 814Q239 814 245 820T251 834Z" />
<glyph unicode="&#xc6;" glyph-name="AE" horiz-adv-x="587" d="M-4 0L134 728H578V581H450V467H565V321H450V147H578V0H265V80H194L183 0H-4ZM265 229V580L215 229H265Z" />
<glyph unicode="&#xc7;" glyph-name="Ccedilla" horiz-adv-x="470" d="M455 192Q455 143 439 106T395 43T327 4T242 -10H233Q187 -10 147 3T78 42T32 105T15 192V537Q15 585 32 622T78 685T147 724T233 738H243Q288 738 327 725T394 686T439 623T455 537V474H270V544Q270
567 262 577T241 587H238Q224 587 216 577T208 544V184Q208 161 216 151T238 141H241Q254 141 262 151T270 184V267H455V192ZM164 -101H214Q231 -101 231 -90V-88Q231 -77 214 -77H178V0H254V-26Q289 -27 310 -42T332 -93V-95Q332 -130 310 -148T251 -166H164V-101Z"
/>
<glyph unicode="&#xc8;" glyph-name="Egrave" horiz-adv-x="351" d="M18 0V728H341V581H210V467H328V321H210V147H341V0H18ZM548 752L323 793V908L548 856V752Z" />
<glyph unicode="&#xc9;" glyph-name="Eacute" horiz-adv-x="351" d="M18 0V728H341V581H210V467H328V321H210V147H341V0H18ZM328 856L553 909V793L328 752V856Z" />
<glyph unicode="&#xca;" glyph-name="Ecircumflex" horiz-adv-x="351" d="M18 0V728H341V581H210V467H328V321H210V147H341V0H18ZM553 849V750L435 792L316 750V849L406 900H464L553 849Z" />
<glyph unicode="&#xcb;" glyph-name="Edieresis" horiz-adv-x="351" d="M18 0V728H341V581H210V467H328V321H210V147H341V0H18ZM289 877H421V756H289V877ZM448 877H580V756H448V877Z" />
<glyph unicode="&#xcc;" glyph-name="Igrave" horiz-adv-x="228" d="M18 728H210V0H18V728ZM484 752L259 793V908L484 856V752Z" />
<glyph unicode="&#xcd;" glyph-name="Iacute" horiz-adv-x="228" d="M18 728H210V0H18V728ZM259 856L484 909V793L259 752V856Z" />
<glyph unicode="&#xce;" glyph-name="Icircumflex" horiz-adv-x="228" d="M18 728H210V0H18V728ZM490 849V750L372 792L253 750V849L343 900H401L490 849Z" />
<glyph unicode="&#xcf;" glyph-name="Idieresis" horiz-adv-x="228" d="M18 728H210V0H18V728ZM101 877V756H-26V877H101ZM254 877V756H127V877H254Z" />
<glyph unicode="&#xd0;" glyph-name="Eth" horiz-adv-x="488" d="M4 447H27V728H258Q362 728 418 673T474 508V212Q474 103 418 52T258 0H27V311H4V447ZM251 137Q280 137 280 182V546Q280 591 251 591H219V447H253V311H219V137H251Z" />
<glyph unicode="&#xd1;" glyph-name="Ntilde" horiz-adv-x="498" d="M193 385V0H18V728H226L305 339V728H480V0H274L193 385ZM117 758V794Q117 845 134 867T187 889Q222 889 243 880T285 870Q301 870 301 892H387V855Q387 804 370 783T318 761Q286 761 263 770T219
780Q203 780 203 758H117Z" />
<glyph unicode="&#xd2;" glyph-name="Ograve" horiz-adv-x="478" d="M15 536Q15 585 32 622T78 685T148 724T234 738H244Q290 738 330 725T399 686T446 623T463 536V192Q463 143 446 106T400 43T330 4T244 -10H234Q188 -10 148 3T79 42T32 105T15 192V536ZM270
544Q270 567 262 577T241 587H237Q224 587 216 577T208 544V184Q208 161 216 151T237 141H241Q253 141 261 151T270 184V544ZM354 752L129 793V908L354 856V752Z" />
<glyph unicode="&#xd3;" glyph-name="Oacute" horiz-adv-x="478" d="M15 536Q15 585 32 622T78 685T148 724T234 738H244Q290 738 330 725T399 686T446 623T463 536V192Q463 143 446 106T400 43T330 4T244 -10H234Q188 -10 148 3T79 42T32 105T15 192V536ZM270
544Q270 567 262 577T241 587H237Q224 587 216 577T208 544V184Q208 161 216 151T237 141H241Q253 141 261 151T270 184V544ZM128 856L353 909V793L128 752V856Z" />
<glyph unicode="&#xd4;" glyph-name="Ocircumflex" horiz-adv-x="478" d="M15 536Q15 585 32 622T78 685T148 724T234 738H244Q290 738 330 725T399 686T446 623T463 536V192Q463 143 446 106T400 43T330 4T244 -10H234Q188 -10 148 3T79 42T32 105T15 192V536ZM270
544Q270 567 262 577T241 587H237Q224 587 216 577T208 544V184Q208 161 216 151T237 141H241Q253 141 261 151T270 184V544ZM357 849V750L239 792L120 750V849L210 900H268L357 849Z" />
<glyph unicode="&#xd5;" glyph-name="Otilde" horiz-adv-x="478" d="M15 536Q15 585 32 622T78 685T148 724T234 738H244Q290 738 330 725T399 686T446 623T463 536V192Q463 143 446 106T400 43T330 4T244 -10H234Q188 -10 148 3T79 42T32 105T15 192V536ZM270
544Q270 567 262 577T241 587H237Q224 587 216 577T208 544V184Q208 161 216 151T237 141H241Q253 141 261 151T270 184V544ZM104 758V794Q104 845 121 867T174 889Q209 889 230 880T272 870Q288 870 288 892H374V855Q374 804 357 783T305 761Q273 761 250 770T206
780Q190 780 190 758H104Z" />
<glyph unicode="&#xd6;" glyph-name="Odieresis" horiz-adv-x="478" d="M15 536Q15 585 32 622T78 685T148 724T234 738H244Q290 738 330 725T399 686T446 623T463 536V192Q463 143 446 106T400 43T330 4T244 -10H234Q188 -10 148 3T79 42T32 105T15 192V536ZM270
544Q270 567 262 577T241 587H237Q224 587 216 577T208 544V184Q208 161 216 151T237 141H241Q253 141 261 151T270 184V544ZM93 877H225V756H93V877ZM252 877H384V756H252V877Z" />
<glyph unicode="&#xd7;" glyph-name="multiply" horiz-adv-x="391" d="M12 270L97 356L12 442L111 541L195 455L280 541L380 442L294 356L380 270L280 171L195 256L111 171L12 270Z" />
<glyph unicode="&#xd8;" glyph-name="Oslash" horiz-adv-x="478" d="M16 535Q16 584 33 622T79 685T149 724T235 737H245Q310 737 360 711L376 741H472L428 654Q445 630 454 601T463 535V192Q463 143 446 106T400 43T330 4T245 -10H235Q175 -10 124 13L111 -14H15L55
68Q16 118 16 192V535ZM206 337L274 546Q273 588 242 588H238Q224 588 215 579T206 545V337ZM274 380L206 179Q206 157 214 148T238 139H241Q255 139 264 149T274 182V380Z" />
<glyph unicode="&#xd9;" glyph-name="Ugrave" horiz-adv-x="478" d="M463 192Q463 143 446 106T400 43T330 4T244 -10H234Q188 -10 148 3T79 42T32 105T15 192V728H208V184Q208 161 216 151T237 141H241Q253 141 261 151T270 184V728H463V192ZM352 752L127 793V908L352
856V752Z" />
<glyph unicode="&#xda;" glyph-name="Uacute" horiz-adv-x="478" d="M463 192Q463 143 446 106T400 43T330 4T244 -10H234Q188 -10 148 3T79 42T32 105T15 192V728H208V184Q208 161 216 151T237 141H241Q253 141 261 151T270 184V728H463V192ZM127 856L352 909V793L127
752V856Z" />
<glyph unicode="&#xdb;" glyph-name="Ucircumflex" horiz-adv-x="478" d="M463 192Q463 143 446 106T400 43T330 4T244 -10H234Q188 -10 148 3T79 42T32 105T15 192V728H208V184Q208 161 216 151T237 141H241Q253 141 261 151T270 184V728H463V192ZM357 849V750L239
792L120 750V849L210 900H268L357 849Z" />
<glyph unicode="&#xdc;" glyph-name="Udieresis" horiz-adv-x="478" d="M463 192Q463 143 446 106T400 43T330 4T244 -10H234Q188 -10 148 3T79 42T32 105T15 192V728H208V184Q208 161 216 151T237 141H241Q253 141 261 151T270 184V728H463V192ZM94 877H226V756H94V877ZM253
877H385V756H253V877Z" />
<glyph unicode="&#xdd;" glyph-name="Yacute" horiz-adv-x="460" d="M331 248V0H138V244L-3 728H196L235 474L270 728H463L331 248ZM120 856L345 909V793L120 752V856Z" />
<glyph unicode="&#xde;" glyph-name="Thorn" horiz-adv-x="472" d="M210 597H247Q355 597 408 547T462 387V363Q462 254 409 204T247 153H210V0H18V728H210V597ZM210 460V290H239Q268 290 268 338V417Q268 460 239 460H210Z" />
<glyph unicode="&#xdf;" glyph-name="germandbls" horiz-adv-x="473" d="M218 458H234Q250 458 256 469T263 499V543Q263 566 255 576T234 586H231Q217 586 209 576T200 543V0H17V536Q17 585 32 622T76 685T142 724T227 737H237Q334 737 390 691T447 557V545Q447
488 427 453T361 404Q415 390 438 350T462 246V194Q462 141 447 104T405 44T341 11T259 0H218V151H236Q248 151 256 159T265 189V294Q265 333 234 333H218V458Z" />
<glyph unicode="&#xe0;" glyph-name="agrave" horiz-adv-x="428" d="M171 0Q132 0 102 13T51 50T20 104T9 170V180Q9 252 50 292T171 333H235V399Q235 429 213 429H210Q201 429 195 421T189 399V359H29V403Q29 447 43 480T81 535T140 568T216 579H220Q262 579
297 569T357 536T397 482T411 404V0H171ZM235 128V225H216Q200 225 193 216T185 185V168Q185 146 192 137T216 128H235ZM333 592L117 635V759L333 705V592Z" />
<glyph unicode="&#xe1;" glyph-name="aacute" horiz-adv-x="428" d="M171 0Q132 0 102 13T51 50T20 104T9 170V180Q9 252 50 292T171 333H235V399Q235 429 213 429H210Q201 429 195 421T189 399V359H29V403Q29 447 43 480T81 535T140 568T216 579H220Q262 579
297 569T357 536T397 482T411 404V0H171ZM235 128V225H216Q200 225 193 216T185 185V168Q185 146 192 137T216 128H235ZM122 705L337 759V635L122 592V705Z" />
<glyph unicode="&#xe2;" glyph-name="acircumflex" horiz-adv-x="428" d="M171 0Q132 0 102 13T51 50T20 104T9 170V180Q9 252 50 292T171 333H235V399Q235 429 213 429H210Q201 429 195 421T189 399V359H29V403Q29 447 43 480T81 535T140 568T216 579H220Q262
579 297 569T357 536T397 482T411 404V0H171ZM235 128V225H216Q200 225 193 216T185 185V168Q185 146 192 137T216 128H235ZM344 695V590L225 634L105 590V695L196 745H255L344 695Z" />
<glyph unicode="&#xe3;" glyph-name="atilde" horiz-adv-x="428" d="M171 0Q132 0 102 13T51 50T20 104T9 170V180Q9 252 50 292T171 333H235V399Q235 429 213 429H210Q201 429 195 421T189 399V359H29V403Q29 447 43 480T81 535T140 568T216 579H220Q262 579
297 569T357 536T397 482T411 404V0H171ZM235 128V225H216Q200 225 193 216T185 185V168Q185 146 192 137T216 128H235ZM91 594V638Q91 690 108 712T161 735Q179 735 192 732T216 725T236 718T256 715Q272 715 272 737H357V694Q357 640 340 619T287 597Q255 597
234 606T192 616Q175 616 175 594H91Z" />
<glyph unicode="&#xe4;" glyph-name="adieresis" horiz-adv-x="428" d="M171 0Q132 0 102 13T51 50T20 104T9 170V180Q9 252 50 292T171 333H235V399Q235 429 213 429H210Q201 429 195 421T189 399V359H29V403Q29 447 43 480T81 535T140 568T216 579H220Q262 579
297 569T357 536T397 482T411 404V0H171ZM235 128V225H216Q200 225 193 216T185 185V168Q185 146 192 137T216 128H235ZM77 722H210V600H77V722ZM239 722H370V600H239V722Z" />
<glyph unicode="&#xe5;" glyph-name="aring" horiz-adv-x="428" d="M171 0Q132 0 102 13T51 50T20 104T9 170V180Q9 252 50 292T171 333H235V399Q235 429 213 429H210Q201 429 195 421T189 399V359H29V403Q29 447 43 480T81 535T140 568T216 579H220Q262 579 297
569T357 536T397 482T411 404V0H171ZM235 128V225H216Q200 225 193 216T185 185V168Q185 146 192 137T216 128H235ZM322 688Q322 646 295 619T224 592Q181 592 154 619T126 688Q126 730 153 757T224 784Q267 784 294 757T322 688ZM244 688Q244 696 238 702T224
708Q215 708 210 702T204 688Q204 680 209 674T224 668Q232 668 238 674T244 688Z" />
<glyph unicode="&#xe6;" glyph-name="ae" horiz-adv-x="640" d="M625 217V173Q625 128 612 95T575 41T521 10T452 0H169Q130 0 101 13T51 50T20 104T9 170V180Q9 252 49 292T169 333H232V403Q232 432 210 432H208Q186 432 186 403V359H29V403Q29 447 42 480T80
535T136 568T207 579H211Q242 579 272 571T322 546Q341 563 371 571T431 579H436Q475 579 509 567T569 531T610 473T625 393V246H408V124H435Q458 124 458 158V217H625ZM232 128V225H213Q197 225 190 216T182 185V168Q182 146 189 137T213 128H232ZM408 349H458V398Q458
416 452 424T434 432H432Q421 432 415 424T408 397V349Z" />
<glyph unicode="&#xe7;" glyph-name="ccedilla" horiz-adv-x="424" d="M413 176Q413 131 398 97T356 38T293 2T215 -10H210Q168 -10 133 2T71 38T30 96T15 176V393Q15 438 30 472T71 531T132 567T210 579H215Q257 579 293 567T356 531T398 473T413 393V359H243V395Q243
412 236 420T219 429H216Q191 429 191 395V174Q191 140 216 140H219Q229 140 236 148T243 174V217H413V176ZM144 -101H194Q211 -101 211 -90V-88Q211 -77 194 -77H158V0H234V-26Q269 -27 290 -42T312 -93V-95Q312 -130 290 -148T231 -166H144V-101Z" />
<glyph unicode="&#xe8;" glyph-name="egrave" horiz-adv-x="425" d="M191 246V174Q191 157 198 149T217 140H219Q230 140 236 148T243 174V217H411V176Q411 131 396 97T355 38T292 2T214 -10H210Q168 -10 133 2T71 38T30 96T15 176V394Q15 439 29 473T70 531T132
567T210 579H215Q257 579 293 567T355 531T396 473T411 393V246H191ZM191 353H243V398Q243 415 236 423T219 432H216Q191 432 191 398V353ZM318 592L102 635V759L318 705V592Z" />
<glyph unicode="&#xe9;" glyph-name="eacute" horiz-adv-x="425" d="M191 246V174Q191 157 198 149T217 140H219Q230 140 236 148T243 174V217H411V176Q411 131 396 97T355 38T292 2T214 -10H210Q168 -10 133 2T71 38T30 96T15 176V394Q15 439 29 473T70 531T132
567T210 579H215Q257 579 293 567T355 531T396 473T411 393V246H191ZM191 353H243V398Q243 415 236 423T219 432H216Q191 432 191 398V353ZM102 705L317 759V635L102 592V705Z" />
<glyph unicode="&#xea;" glyph-name="ecircumflex" horiz-adv-x="425" d="M191 246V174Q191 157 198 149T217 140H219Q230 140 236 148T243 174V217H411V176Q411 131 396 97T355 38T292 2T214 -10H210Q168 -10 133 2T71 38T30 96T15 176V394Q15 439 29 473T70
531T132 567T210 579H215Q257 579 293 567T355 531T396 473T411 393V246H191ZM191 353H243V398Q243 415 236 423T219 432H216Q191 432 191 398V353ZM329 695V590L210 634L90 590V695L181 745H240L329 695Z" />
<glyph unicode="&#xeb;" glyph-name="edieresis" horiz-adv-x="425" d="M191 246V174Q191 157 198 149T217 140H219Q230 140 236 148T243 174V217H411V176Q411 131 396 97T355 38T292 2T214 -10H210Q168 -10 133 2T71 38T30 96T15 176V394Q15 439 29 473T70 531T132
567T210 579H215Q257 579 293 567T355 531T396 473T411 393V246H191ZM191 353H243V398Q243 415 236 423T219 432H216Q191 432 191 398V353ZM62 722H195V600H62V722ZM224 722H355V600H224V722Z" />
<glyph unicode="&#xec;" glyph-name="igrave" horiz-adv-x="211" d="M194 569V0H17V569H194ZM471 592L255 635V759L471 705V592Z" />
<glyph unicode="&#xed;" glyph-name="iacute" horiz-adv-x="211" d="M206 760V636L6 593V706L206 760ZM194 569V0H17V569H194Z" />
<glyph unicode="&#xee;" glyph-name="icircumflex" horiz-adv-x="211" d="M194 569V0H17V569H194ZM482 695V590L363 634L243 590V695L334 745H393L482 695Z" />
<glyph unicode="&#xef;" glyph-name="idieresis" horiz-adv-x="211" d="M94 722V600H-30V722H94ZM241 722V600H118V722H241ZM194 569V0H17V569H194Z" />
<glyph unicode="&#xf0;" glyph-name="eth" horiz-adv-x="436" d="M70 652L133 667L79 728H263L284 703L383 727V656L334 644L339 638Q356 618 371 597T397 550T414 492T421 420V176Q421 131 406 97T363 38T299 2T220 -10H215Q173 -10 137 2T73 38T31 96T15 176V399Q15
481 56 525T169 570H170Q182 570 201 567T236 551L185 608L70 581V652ZM191 174Q191 157 198 149T217 140H219Q230 140 237 148T245 174V398Q245 415 238 423T219 432H217Q206 432 199 424T191 398V174Z" />
<glyph unicode="&#xf1;" glyph-name="ntilde" horiz-adv-x="438" d="M246 390Q246 412 239 421T218 430H194V0H18V569H263Q344 569 383 518T422 382V0H246V390ZM81 594V638Q81 690 98 712T151 735Q169 735 182 732T206 725T226 718T246 715Q262 715 262 737H347V694Q347
640 330 619T277 597Q245 597 224 606T182 616Q165 616 165 594H81Z" />
<glyph unicode="&#xf2;" glyph-name="ograve" horiz-adv-x="436" d="M191 174Q191 157 198 149T217 140H219Q230 140 237 148T245 174V395Q245 412 238 420T219 429H217Q206 429 199 421T191 395V174ZM15 393Q15 438 30 472T73 531T136 567T215 579H220Q262 579
298 567T362 531T405 473T421 393V176Q421 131 406 97T363 38T299 2T220 -10H215Q173 -10 137 2T73 38T31 96T15 176V393ZM326 592L110 635V759L326 705V592Z" />
<glyph unicode="&#xf3;" glyph-name="oacute" horiz-adv-x="436" d="M191 174Q191 157 198 149T217 140H219Q230 140 237 148T245 174V395Q245 412 238 420T219 429H217Q206 429 199 421T191 395V174ZM15 393Q15 438 30 472T73 531T136 567T215 579H220Q262 579
298 567T362 531T405 473T421 393V176Q421 131 406 97T363 38T299 2T220 -10H215Q173 -10 137 2T73 38T31 96T15 176V393ZM114 705L329 759V635L114 592V705Z" />
<glyph unicode="&#xf4;" glyph-name="ocircumflex" horiz-adv-x="436" d="M191 174Q191 157 198 149T217 140H219Q230 140 237 148T245 174V395Q245 412 238 420T219 429H217Q206 429 199 421T191 395V174ZM15 393Q15 438 30 472T73 531T136 567T215 579H220Q262
579 298 567T362 531T405 473T421 393V176Q421 131 406 97T363 38T299 2T220 -10H215Q173 -10 137 2T73 38T31 96T15 176V393ZM338 695V590L219 634L99 590V695L190 745H249L338 695Z" />
<glyph unicode="&#xf5;" glyph-name="otilde" horiz-adv-x="436" d="M191 174Q191 157 198 149T217 140H219Q230 140 237 148T245 174V395Q245 412 238 420T219 429H217Q206 429 199 421T191 395V174ZM15 393Q15 438 30 472T73 531T136 567T215 579H220Q262 579
298 567T362 531T405 473T421 393V176Q421 131 406 97T363 38T299 2T220 -10H215Q173 -10 137 2T73 38T31 96T15 176V393ZM85 594V638Q85 690 102 712T155 735Q173 735 186 732T210 725T230 718T250 715Q266 715 266 737H351V694Q351 640 334 619T281 597Q249 597
228 606T186 616Q169 616 169 594H85Z" />
<glyph unicode="&#xf6;" glyph-name="odieresis" horiz-adv-x="436" d="M191 174Q191 157 198 149T217 140H219Q230 140 237 148T245 174V395Q245 412 238 420T219 429H217Q206 429 199 421T191 395V174ZM15 393Q15 438 30 472T73 531T136 567T215 579H220Q262
579 298 567T362 531T405 473T421 393V176Q421 131 406 97T363 38T299 2T220 -10H215Q173 -10 137 2T73 38T31 96T15 176V393ZM71 722H204V600H71V722ZM233 722H364V600H233V722Z" />
<glyph unicode="&#xf7;" glyph-name="divide" horiz-adv-x="402" d="M15 286V428H387V286H15ZM122 255H278V110H122V255ZM122 603H278V458H122V603Z" />
<glyph unicode="&#xf8;" glyph-name="oslash" horiz-adv-x="436" d="M15 393Q15 438 30 472T73 531T136 567T215 579H220Q271 579 313 561L324 584H414L381 512Q400 489 410 460T421 393V176Q421 131 406 97T363 38T299 2T220 -10H215Q165 -10 123 7L113 -15H25L56
55Q36 78 26 108T15 176V393ZM188 269L246 424Q240 441 222 441H216Q204 441 196 433T188 408V269ZM220 128Q232 128 240 136T248 161V291L191 143Q197 128 214 128H220Z" />
<glyph unicode="&#xf9;" glyph-name="ugrave" horiz-adv-x="436" d="M192 179Q192 157 198 148T219 139H243V569H419V0H174Q93 0 54 51T15 187V569H192V179ZM326 592L110 635V759L326 705V592Z" />
<glyph unicode="&#xfa;" glyph-name="uacute" horiz-adv-x="436" d="M192 179Q192 157 198 148T219 139H243V569H419V0H174Q93 0 54 51T15 187V569H192V179ZM110 705L325 759V635L110 592V705Z" />
<glyph unicode="&#xfb;" glyph-name="ucircumflex" horiz-adv-x="436" d="M192 179Q192 157 198 148T219 139H243V569H419V0H174Q93 0 54 51T15 187V569H192V179ZM337 695V590L218 634L98 590V695L189 745H248L337 695Z" />
<glyph unicode="&#xfc;" glyph-name="udieresis" horiz-adv-x="436" d="M192 179Q192 157 198 148T219 139H243V569H419V0H174Q93 0 54 51T15 187V569H192V179ZM70 722H203V600H70V722ZM232 722H363V600H232V722Z" />
<glyph unicode="&#xfd;" glyph-name="yacute" horiz-adv-x="446" d="M445 569L264 -126H84L140 70L0 569H186L224 311L262 569H445ZM115 705L330 759V635L115 592V705Z" />
<glyph unicode="&#xfe;" glyph-name="thorn" horiz-adv-x="436" d="M17 728H195V569H263Q344 569 383 518T422 381V189Q422 103 383 52T263 0H194V-152H17V728ZM194 139H217Q232 139 238 148T245 181V389Q245 412 239 421T217 430H194V139Z" />
<glyph unicode="&#xff;" glyph-name="ydieresis" horiz-adv-x="446" d="M445 569L264 -126H84L140 70L0 569H186L224 311L262 569H445ZM76 722H209V600H76V722ZM238 722H369V600H238V722Z" />
<glyph unicode="&#x100;" glyph-name="Amacron" horiz-adv-x="469" d="M-4 0L99 728H364L473 0H274L267 74H189L184 0H-4ZM201 230H252L224 537L201 230ZM357 761H98V874H357V761Z" />
<glyph unicode="&#x101;" glyph-name="amacron" horiz-adv-x="428" d="M171 0Q132 0 102 13T51 50T20 104T9 170V180Q9 252 50 292T171 333H235V399Q235 429 213 429H210Q201 429 195 421T189 399V359H29V403Q29 447 43 480T81 535T140 568T216 579H220Q262 579
297 569T357 536T397 482T411 404V0H171ZM235 128V225H216Q200 225 193 216T185 185V168Q185 146 192 137T216 128H235ZM355 603H93V717H355V603Z" />
<glyph unicode="&#x102;" glyph-name="Abreve" horiz-adv-x="469" d="M-4 0L99 728H364L473 0H274L267 74H189L184 0H-4ZM201 230H252L224 537L201 230ZM356 881Q354 818 322 785T227 751Q164 751 132 785T98 881H197Q199 851 227 851Q255 851 255 881H356Z" />
<glyph unicode="&#x103;" glyph-name="abreve" horiz-adv-x="428" d="M171 0Q132 0 102 13T51 50T20 104T9 170V180Q9 252 50 292T171 333H235V399Q235 429 213 429H210Q201 429 195 421T189 399V359H29V403Q29 447 43 480T81 535T140 568T216 579H220Q262 579
297 569T357 536T397 482T411 404V0H171ZM235 128V225H216Q200 225 193 216T185 185V168Q185 146 192 137T216 128H235ZM352 733Q350 667 319 632T224 596Q161 596 130 631T96 733H194Q196 701 224 701Q251 701 253 733H352Z" />
<glyph unicode="&#x104;" glyph-name="Aogonek" horiz-adv-x="469" d="M274 0L267 74H189L184 0H-4L99 728H364L473 0H461Q441 -11 435 -19T429 -34Q429 -40 433 -44T450 -49H474V-137H378Q333 -137 313 -120T292 -76Q292 -46 318 -26T385 0H274ZM201 230H252L224
537L201 230Z" />
<glyph unicode="&#x105;" glyph-name="aogonek" horiz-adv-x="428" d="M401 -137H305Q260 -137 240 -120T219 -76Q219 -46 245 -26T312 0H171Q132 0 102 13T51 50T20 104T9 170V180Q9 252 50 292T171 333H235V399Q235 429 213 429H210Q201 429 195 421T189 399V359H29V403Q29
447 43 480T81 535T140 568T216 579H220Q262 579 297 569T357 536T397 482T411 404V0H387Q367 -11 362 -19T356 -34Q356 -40 360 -44T377 -49H401V-137ZM235 128V225H216Q200 225 193 216T185 185V168Q185 146 192 137T216 128H235Z" />
<glyph unicode="&#x106;" glyph-name="Cacute" horiz-adv-x="470" d="M455 192Q455 143 439 106T395 43T327 4T242 -10H233Q187 -10 147 3T78 42T32 105T15 192V537Q15 585 32 622T78 685T147 724T233 738H243Q288 738 327 725T394 686T439 623T455 537V474H270V544Q270
567 262 577T241 587H238Q224 587 216 577T208 544V184Q208 161 216 151T238 141H241Q254 141 262 151T270 184V267H455V192ZM122 856L347 909V793L122 752V856Z" />
<glyph unicode="&#x107;" glyph-name="cacute" horiz-adv-x="424" d="M413 176Q413 131 398 97T356 38T293 2T215 -10H210Q168 -10 133 2T71 38T30 96T15 176V393Q15 438 30 472T71 531T132 567T210 579H215Q257 579 293 567T356 531T398 473T413 393V359H243V395Q243
412 236 420T219 429H216Q191 429 191 395V174Q191 140 216 140H219Q229 140 236 148T243 174V217H413V176ZM107 705L322 759V635L107 592V705Z" />
<glyph unicode="&#x108;" glyph-name="Ccircumflex" horiz-adv-x="470" d="M455 192Q455 143 439 106T395 43T327 4T242 -10H233Q187 -10 147 3T78 42T32 105T15 192V537Q15 585 32 622T78 685T147 724T233 738H243Q288 738 327 725T394 686T439 623T455 537V474H270V544Q270
567 262 577T241 587H238Q224 587 216 577T208 544V184Q208 161 216 151T238 141H241Q254 141 262 151T270 184V267H455V192ZM354 849V750L236 792L117 750V849L207 900H265L354 849Z" />
<glyph unicode="&#x109;" glyph-name="ccircumflex" horiz-adv-x="424" d="M413 176Q413 131 398 97T356 38T293 2T215 -10H210Q168 -10 133 2T71 38T30 96T15 176V393Q15 438 30 472T71 531T132 567T210 579H215Q257 579 293 567T356 531T398 473T413 393V359H243V395Q243
412 236 420T219 429H216Q191 429 191 395V174Q191 140 216 140H219Q229 140 236 148T243 174V217H413V176ZM334 695V590L215 634L95 590V695L186 745H245L334 695Z" />
<glyph unicode="&#x10a;" glyph-name="Cdotaccent" horiz-adv-x="470" d="M455 192Q455 143 439 106T395 43T327 4T242 -10H233Q187 -10 147 3T78 42T32 105T15 192V537Q15 585 32 622T78 685T147 724T233 738H243Q288 738 327 725T394 686T439 623T455 537V474H270V544Q270
567 262 577T241 587H238Q224 587 216 577T208 544V184Q208 161 216 151T238 141H241Q254 141 262 151T270 184V267H455V192ZM155 878H315V756H155V878Z" />
<glyph unicode="&#x10b;" glyph-name="cdotaccent" horiz-adv-x="424" d="M413 176Q413 131 398 97T356 38T293 2T215 -10H210Q168 -10 133 2T71 38T30 96T15 176V393Q15 438 30 472T71 531T132 567T210 579H215Q257 579 293 567T356 531T398 473T413 393V359H243V395Q243
412 236 420T219 429H216Q191 429 191 395V174Q191 140 216 140H219Q229 140 236 148T243 174V217H413V176ZM133 722H295V600H133V722Z" />
<glyph unicode="&#x10c;" glyph-name="Ccaron" horiz-adv-x="470" d="M455 192Q455 143 439 106T395 43T327 4T242 -10H233Q187 -10 147 3T78 42T32 105T15 192V537Q15 585 32 622T78 685T147 724T233 738H243Q288 738 327 725T394 686T439 623T455 537V474H270V544Q270
567 262 577T241 587H238Q224 587 216 577T208 544V184Q208 161 216 151T238 141H241Q254 141 262 151T270 184V267H455V192ZM265 751H207L117 801V900L236 858L354 900V801L265 751Z" />
<glyph unicode="&#x10d;" glyph-name="ccaron" horiz-adv-x="424" d="M413 176Q413 131 398 97T356 38T293 2T215 -10H210Q168 -10 133 2T71 38T30 96T15 176V393Q15 438 30 472T71 531T132 567T210 579H215Q257 579 293 567T356 531T398 473T413 393V359H243V395Q243
412 236 420T219 429H216Q191 429 191 395V174Q191 140 216 140H219Q229 140 236 148T243 174V217H413V176ZM245 595H186L95 645V750L215 705L334 750V645L245 595Z" />
<glyph unicode="&#x10e;" glyph-name="Dcaron" horiz-adv-x="479" d="M249 728Q353 728 409 673T465 508V212Q465 103 409 52T249 0H18V728H249ZM242 137Q271 137 271 182V546Q271 591 242 591H210V137H242ZM252 751H194L104 801V900L223 858L341 900V801L252 751Z" />
<glyph unicode="&#x10f;" glyph-name="dcaron" horiz-adv-x="436" d="M420 0H174Q93 0 54 51T15 188V380Q15 466 54 517T174 569H243V728H420V0ZM243 430H220Q205 430 198 421T191 388V180Q191 157 198 148T220 139H243V430ZM556 728V695L533 581H441V728H556Z" />
<glyph unicode="&#x110;" glyph-name="Dcroat" horiz-adv-x="488" d="M4 447H27V728H258Q362 728 418 673T474 508V212Q474 103 418 52T258 0H27V311H4V447ZM251 137Q280 137 280 182V546Q280 591 251 591H219V447H253V311H219V137H251Z" />
<glyph unicode="&#x111;" glyph-name="dcroat" horiz-adv-x="436" d="M420 690H448V600H420V0H174Q93 0 54 51T15 188V380Q15 466 54 517T174 569H243V600H138V690H243V728H420V690ZM243 430H220Q205 430 198 421T191 388V180Q191 157 198 148T220 139H243V430Z" />
<glyph unicode="&#x112;" glyph-name="Emacron" horiz-adv-x="351" d="M18 0V728H341V581H210V467H328V321H210V147H341V0H18ZM564 761H305V874H564V761Z" />
<glyph unicode="&#x113;" glyph-name="emacron" horiz-adv-x="425" d="M191 246V174Q191 157 198 149T217 140H219Q230 140 236 148T243 174V217H411V176Q411 131 396 97T355 38T292 2T214 -10H210Q168 -10 133 2T71 38T30 96T15 176V394Q15 439 29 473T70 531T132
567T210 579H215Q257 579 293 567T355 531T396 473T411 393V246H191ZM191 353H243V398Q243 415 236 423T219 432H216Q191 432 191 398V353ZM340 603H78V717H340V603Z" />
<glyph unicode="&#x114;" glyph-name="Ebreve" horiz-adv-x="351" d="M18 0V728H341V581H210V467H328V321H210V147H341V0H18ZM563 881Q561 818 529 785T434 751Q371 751 339 785T305 881H404Q406 851 434 851Q462 851 462 881H563Z" />
<glyph unicode="&#x115;" glyph-name="ebreve" horiz-adv-x="425" d="M191 246V174Q191 157 198 149T217 140H219Q230 140 236 148T243 174V217H411V176Q411 131 396 97T355 38T292 2T214 -10H210Q168 -10 133 2T71 38T30 96T15 176V394Q15 439 29 473T70 531T132
567T210 579H215Q257 579 293 567T355 531T396 473T411 393V246H191ZM191 353H243V398Q243 415 236 423T219 432H216Q191 432 191 398V353ZM337 733Q335 667 304 632T209 596Q146 596 115 631T81 733H179Q181 701 209 701Q236 701 238 733H337Z" />
<glyph unicode="&#x116;" glyph-name="Edotaccent" horiz-adv-x="351" d="M18 0V728H341V581H210V467H328V321H210V147H341V0H18ZM355 878H515V756H355V878Z" />
<glyph unicode="&#x117;" glyph-name="edotaccent" horiz-adv-x="425" d="M191 246V174Q191 157 198 149T217 140H219Q230 140 236 148T243 174V217H411V176Q411 131 396 97T355 38T292 2T214 -10H210Q168 -10 133 2T71 38T30 96T15 176V394Q15 439 29 473T70
531T132 567T210 579H215Q257 579 293 567T355 531T396 473T411 393V246H191ZM191 353H243V398Q243 415 236 423T219 432H216Q191 432 191 398V353ZM128 722H290V600H128V722Z" />
<glyph unicode="&#x118;" glyph-name="Eogonek" horiz-adv-x="351" d="M18 728H341V581H210V467H328V321H210V147H341V0H318Q292 -11 284 -19T276 -34Q276 -41 280 -45T298 -49H319V-137H221Q177 -137 157 -120T137 -77Q137 -51 154 -31T199 0H18V728Z" />
<glyph unicode="&#x119;" glyph-name="eogonek" horiz-adv-x="425" d="M191 246V174Q191 157 198 149T217 140H219Q230 140 236 148T243 174V217H411V176Q411 122 390 84T333 21Q304 1 298 -12T292 -33Q292 -49 314 -49H337V-137H239Q195 -137 175 -120T155 -75Q155
-57 164 -39T193 -8H188Q150 -5 119 8T64 44T28 101T15 176V394Q15 439 29 473T70 531T132 567T210 579H215Q257 579 293 567T355 531T396 473T411 393V246H191ZM191 353H243V398Q243 415 236 423T219 432H216Q191 432 191 398V353Z" />
<glyph unicode="&#x11a;" glyph-name="Ecaron" horiz-adv-x="351" d="M18 0V728H341V581H210V467H328V321H210V147H341V0H18ZM464 751H406L316 801V900L435 858L553 900V801L464 751Z" />
<glyph unicode="&#x11b;" glyph-name="ecaron" horiz-adv-x="425" d="M191 246V174Q191 157 198 149T217 140H219Q230 140 236 148T243 174V217H411V176Q411 131 396 97T355 38T292 2T214 -10H210Q168 -10 133 2T71 38T30 96T15 176V394Q15 439 29 473T70 531T132
567T210 579H215Q257 579 293 567T355 531T396 473T411 393V246H191ZM191 353H243V398Q243 415 236 423T219 432H216Q191 432 191 398V353ZM240 595H181L90 645V750L210 705L329 750V645L240 595Z" />
<glyph unicode="&#x11c;" glyph-name="Gcircumflex" horiz-adv-x="470" d="M233 0Q185 0 146 12T77 50T32 112T16 200V537Q16 585 32 622T78 685T147 724T233 738H243Q288 738 327 725T394 686T439 623T455 537V474H270V557Q270 580 262 590T240 600H237Q223 600
216 590T208 557V192Q208 169 215 160T238 150H270V272H240V392H454V0H233ZM361 849V750L243 792L124 750V849L214 900H272L361 849Z" />
<glyph unicode="&#x11d;" glyph-name="gcircumflex" horiz-adv-x="435" d="M243 430H220Q205 430 198 421T191 389V228Q191 205 198 197T221 188H243V430ZM243 61H174Q96 61 56 112T15 249V369Q15 423 25 461T59 523T120 558T212 569H420V36Q420 -12 405 -46T362
-103T299 -136T223 -147H219Q178 -147 143 -136T80 -103T38 -48T22 30V40H193V19Q193 6 200 -1T217 -8H220Q230 -8 236 -1T243 20V61ZM351 695V590L232 634L112 590V695L203 745H262L351 695Z" />
<glyph unicode="&#x11e;" glyph-name="Gbreve" horiz-adv-x="470" d="M233 0Q185 0 146 12T77 50T32 112T16 200V537Q16 585 32 622T78 685T147 724T233 738H243Q288 738 327 725T394 686T439 623T455 537V474H270V557Q270 580 262 590T240 600H237Q223 600 216
590T208 557V192Q208 169 215 160T238 150H270V272H240V392H454V0H233ZM371 881Q369 818 337 785T242 751Q179 751 147 785T113 881H212Q214 851 242 851Q270 851 270 881H371Z" />
<glyph unicode="&#x11f;" glyph-name="gbreve" horiz-adv-x="435" d="M243 430H220Q205 430 198 421T191 389V228Q191 205 198 197T221 188H243V430ZM243 61H174Q96 61 56 112T15 249V369Q15 423 25 461T59 523T120 558T212 569H420V36Q420 -12 405 -46T362 -103T299
-136T223 -147H219Q178 -147 143 -136T80 -103T38 -48T22 30V40H193V19Q193 6 200 -1T217 -8H220Q230 -8 236 -1T243 20V61ZM359 733Q357 667 326 632T231 596Q168 596 137 631T103 733H201Q203 701 231 701Q258 701 260 733H359Z" />
<glyph unicode="&#x120;" glyph-name="Gdotaccent" horiz-adv-x="470" d="M233 0Q185 0 146 12T77 50T32 112T16 200V537Q16 585 32 622T78 685T147 724T233 738H243Q288 738 327 725T394 686T439 623T455 537V474H270V557Q270 580 262 590T240 600H237Q223 600
216 590T208 557V192Q208 169 215 160T238 150H270V272H240V392H454V0H233ZM162 878H322V756H162V878Z" />
<glyph unicode="&#x121;" glyph-name="gdotaccent" horiz-adv-x="435" d="M243 430H220Q205 430 198 421T191 389V228Q191 205 198 197T221 188H243V430ZM243 61H174Q96 61 56 112T15 249V369Q15 423 25 461T59 523T120 558T212 569H420V36Q420 -12 405 -46T362
-103T299 -136T223 -147H219Q178 -147 143 -136T80 -103T38 -48T22 30V40H193V19Q193 6 200 -1T217 -8H220Q230 -8 236 -1T243 20V61ZM150 722H312V600H150V722Z" />
<glyph unicode="&#x122;" glyph-name="uni0122" horiz-adv-x="470" d="M233 0Q185 0 146 12T77 50T32 112T16 200V537Q16 585 32 622T78 685T147 724T233 738H243Q288 738 327 725T394 686T439 623T455 537V474H270V557Q270 580 262 590T240 600H237Q223 600 216
590T208 557V192Q208 169 215 160T238 150H270V272H240V392H454V0H233ZM313 -24L284 -171H180V-24H313Z" />
<glyph unicode="&#x123;" glyph-name="uni0123" horiz-adv-x="435" d="M243 430H220Q205 430 198 421T191 389V228Q191 205 198 197T221 188H243V430ZM243 61H174Q96 61 56 112T15 249V369Q15 423 25 461T59 523T120 558T212 569H420V36Q420 -12 405 -46T362 -103T299
-136T223 -147H219Q178 -147 143 -136T80 -103T38 -48T22 30V40H193V19Q193 6 200 -1T217 -8H220Q230 -8 236 -1T243 20V61ZM297 747V600H164L193 747H297Z" />
<glyph unicode="&#x124;" glyph-name="Hcircumflex" horiz-adv-x="483" d="M272 310H210V0H18V728H210V466H272V728H465V0H272V310ZM360 849V750L242 792L123 750V849L213 900H271L360 849Z" />
<glyph unicode="&#x125;" glyph-name="hcircumflex" horiz-adv-x="436" d="M245 390Q245 412 239 421T217 430H194V0H17V728H194V569H263Q343 569 382 518T421 382V-1L245 0V390ZM344 1101V1002L226 1044L107 1002V1101L197 1152H255L344 1101Z" />
<glyph unicode="&#x126;" glyph-name="Hbar" horiz-adv-x="511" d="M3 637H31V728H223V637H285V728H478V637H508V538H478V0H285V310H223V0H31V538H3V637ZM223 466H285V538H223V466Z" />
<glyph unicode="&#x127;" glyph-name="hbar" horiz-adv-x="450" d="M258 390Q258 412 252 421T230 430H207V0H30V599H0V689H30V728H207V689H315V599H207V569H276Q356 569 395 518T434 382V-1L258 0V390Z" />
<glyph unicode="&#x128;" glyph-name="Itilde" horiz-adv-x="228" d="M18 728H210V0H18V728ZM236 758V794Q236 845 253 867T306 889Q341 889 362 880T404 870Q420 870 420 892H506V855Q506 804 489 783T437 761Q405 761 382 770T338 780Q322 780 322 758H236Z" />
<glyph unicode="&#x129;" glyph-name="itilde" horiz-adv-x="211" d="M194 569V0H17V569H194ZM229 594V638Q229 690 246 712T299 735Q317 735 330 732T354 725T374 718T394 715Q410 715 410 737H495V694Q495 640 478 619T425 597Q393 597 372 606T330 616Q313
616 313 594H229Z" />
<glyph unicode="&#x12a;" glyph-name="Imacron" horiz-adv-x="228" d="M-9 759V874H237V759H-9ZM18 728H210V0H18V728Z" />
<glyph unicode="&#x12b;" glyph-name="imacron" horiz-adv-x="211" d="M-16 601V715H228V601H-16ZM194 569V0H17V569H194Z" />
<glyph unicode="&#x12c;" glyph-name="Ibreve" horiz-adv-x="228" d="M18 728H210V0H18V728ZM500 881Q498 818 466 785T371 751Q308 751 276 785T242 881H341Q343 851 371 851Q399 851 399 881H500Z" />
<glyph unicode="&#x12d;" glyph-name="ibreve" horiz-adv-x="211" d="M194 569V0H17V569H194ZM490 733Q488 667 457 632T362 596Q299 596 268 631T234 733H332Q334 701 362 701Q389 701 391 733H490Z" />
<glyph unicode="&#x12e;" glyph-name="Iogonek" horiz-adv-x="228" d="M18 728H210V0H196Q176 -10 170 -18T163 -34Q163 -40 167 -44T184 -49H209V-137H113Q68 -137 48 -120T27 -76Q27 -46 53 -26T119 0H18V728Z" />
<glyph unicode="&#x12f;" glyph-name="iogonek" horiz-adv-x="211" d="M194 -137H98Q53 -137 33 -120T12 -76Q12 -46 38 -26T105 0H17V569H194V0H180Q160 -11 155 -19T149 -34Q149 -40 153 -44T170 -49H194V-137ZM17 596V722H194V596H17Z" />
<glyph unicode="&#x130;" glyph-name="Idotaccent" horiz-adv-x="228" d="M18 728H210V0H18V728ZM291 878H451V756H291V878Z" />
<glyph unicode="&#x131;" glyph-name="dotlessi" horiz-adv-x="211" d="M194 569V0H17V569H194Z" />
<glyph unicode="&#x132;" glyph-name="IJ" horiz-adv-x="517" d="M18 728H210V0H18V728ZM501 196Q501 99 451 50T320 0H235V146H262Q308 146 308 207V728H501V196Z" />
<glyph unicode="&#x133;" glyph-name="ij" horiz-adv-x="423" d="M194 569V0H17V569H194ZM17 596V722H194V596H17ZM183 -27H196Q229 -27 229 16V569H406V32Q406 -45 365 -91T243 -137H183V-27ZM229 596V722H406V596H229Z" />
<glyph unicode="&#x134;" glyph-name="Jcircumflex" horiz-adv-x="289" d="M273 196Q273 99 223 50T92 0H7V146H34Q80 146 80 207V728H273V196ZM552 849V750L434 792L315 750V849L405 900H463L552 849Z" />
<glyph unicode="&#x135;" glyph-name="jcircumflex" horiz-adv-x="212" d="M-28 -27H-15Q18 -27 18 16V569H195V32Q195 -45 154 -91T32 -137H-28V-27ZM482 695V590L363 634L243 590V695L334 745H393L482 695Z" />
<glyph unicode="&#x136;" glyph-name="uni0136" horiz-adv-x="486" d="M210 320V0H18V728H210V433L275 728H478L386 387L481 0H275L210 320ZM300 -24L271 -171H167V-24H300Z" />
<glyph unicode="&#x137;" glyph-name="uni0137" horiz-adv-x="443" d="M693 569L611 294L696 0H506L446 229V0H269V728H446V342L508 569H693ZM286 -24L257 -171H153V-24H286Z" />
<glyph unicode="&#x139;" glyph-name="Lacute" horiz-adv-x="345" d="M18 728H210V156H335V0H18V728ZM265 856L490 909V793L265 752V856Z" />
<glyph unicode="&#x13a;" glyph-name="lacute" horiz-adv-x="211" d="M215 902V785L-4 744V850L215 902ZM194 0H17V728H194V0Z" />
<glyph unicode="&#x13b;" glyph-name="uni013B" horiz-adv-x="345" d="M18 728H210V156H335V0H18V728ZM495 -24L466 -171H362V-24H495Z" />
<glyph unicode="&#x13c;" glyph-name="uni013C" horiz-adv-x="211" d="M194 0H17V728H194V0ZM429 -24L400 -171H296V-24H429Z" />
<glyph unicode="&#x13d;" glyph-name="Lcaron" horiz-adv-x="345" d="M18 728H210V156H335V0H18V728ZM348 728V695L325 581H233V728H348Z" />
<glyph unicode="&#x13e;" glyph-name="lcaron" horiz-adv-x="211" d="M194 0H17V728H194V0ZM332 728V695L309 581H217V728H332Z" />
<glyph unicode="&#x13f;" glyph-name="Ldot" horiz-adv-x="402" d="M18 728H210V156H335V0H18V728ZM386 499V347H243V499H386Z" />
<glyph unicode="&#x140;" glyph-name="ldot" horiz-adv-x="378" d="M366 470V317H223V470H366ZM194 0H17V728H194V0Z" />
<glyph unicode="&#x141;" glyph-name="Lslash" horiz-adv-x="359" d="M1 364L31 375V728H223V446L307 478V358L223 326V156H348V0H31V255L1 244V364Z" />
<glyph unicode="&#x142;" glyph-name="lslash" horiz-adv-x="238" d="M207 500L237 510V396L207 386V0H30V329L1 320V433L30 442V728H207V500Z" />
<glyph unicode="&#x143;" glyph-name="Nacute" horiz-adv-x="498" d="M193 385V0H18V728H226L305 339V728H480V0H274L193 385ZM136 856L361 909V793L136 752V856Z" />
<glyph unicode="&#x144;" glyph-name="nacute" horiz-adv-x="438" d="M246 390Q246 412 239 421T218 430H194V0H18V569H263Q344 569 383 518T422 382V0H246V390ZM105 705L320 759V635L105 592V705Z" />
<glyph unicode="&#x145;" glyph-name="uni0145" horiz-adv-x="498" d="M193 385V0H18V728H226L305 339V728H480V0H274L193 385ZM315 -24L286 -171H182V-24H315Z" />
<glyph unicode="&#x146;" glyph-name="uni0146" horiz-adv-x="438" d="M246 390Q246 412 239 421T218 430H194V0H18V569H263Q344 569 383 518T422 382V0H246V390ZM288 -24L259 -171H155V-24H288Z" />
<glyph unicode="&#x147;" glyph-name="Ncaron" horiz-adv-x="498" d="M193 385V0H18V728H226L305 339V728H480V0H274L193 385ZM278 751H220L130 801V900L249 858L367 900V801L278 751Z" />
<glyph unicode="&#x148;" glyph-name="ncaron" horiz-adv-x="438" d="M246 390Q246 412 239 421T218 430H194V0H18V569H263Q344 569 383 518T422 382V0H246V390ZM244 595H185L94 645V750L214 705L333 750V645L244 595Z" />
<glyph unicode="&#x149;" glyph-name="napostrophe" horiz-adv-x="541" d="M341 390Q341 412 334 421T313 430H289V0H113V569H358Q439 569 478 518T517 382V0H341V390ZM364 728L330 489H212V728H364Z" />
<glyph unicode="&#x14a;" glyph-name="Eng" horiz-adv-x="498" d="M247 -28H265Q288 -28 294 -20T301 5V7L193 399V0H18V728H226L281 502L305 386V728H480V30Q480 -47 439 -93T316 -139H247V-28Z" />
<glyph unicode="&#x14b;" glyph-name="eng" horiz-adv-x="438" d="M203 -33H210Q229 -33 237 -23T246 12V390Q246 412 239 421T218 430H194V0H18V569H263Q344 569 383 518T422 382V30Q422 -46 381 -92T259 -139H203V-33Z" />
<glyph unicode="&#x14c;" glyph-name="Omacron" horiz-adv-x="478" d="M15 536Q15 585 32 622T78 685T148 724T234 738H244Q290 738 330 725T399 686T446 623T463 536V192Q463 143 446 106T400 43T330 4T244 -10H234Q188 -10 148 3T79 42T32 105T15 192V536ZM270
544Q270 567 262 577T241 587H237Q224 587 216 577T208 544V184Q208 161 216 151T237 141H241Q253 141 261 151T270 184V544ZM368 761H109V874H368V761Z" />
<glyph unicode="&#x14d;" glyph-name="omacron" horiz-adv-x="436" d="M191 174Q191 157 198 149T217 140H219Q230 140 237 148T245 174V395Q245 412 238 420T219 429H217Q206 429 199 421T191 395V174ZM15 393Q15 438 30 472T73 531T136 567T215 579H220Q262
579 298 567T362 531T405 473T421 393V176Q421 131 406 97T363 38T299 2T220 -10H215Q173 -10 137 2T73 38T31 96T15 176V393ZM348 603H86V717H348V603Z" />
<glyph unicode="&#x14e;" glyph-name="Obreve" horiz-adv-x="478" d="M15 536Q15 585 32 622T78 685T148 724T234 738H244Q290 738 330 725T399 686T446 623T463 536V192Q463 143 446 106T400 43T330 4T244 -10H234Q188 -10 148 3T79 42T32 105T15 192V536ZM270
544Q270 567 262 577T241 587H237Q224 587 216 577T208 544V184Q208 161 216 151T237 141H241Q253 141 261 151T270 184V544ZM367 881Q365 818 333 785T238 751Q175 751 143 785T109 881H208Q210 851 238 851Q266 851 266 881H367Z" />
<glyph unicode="&#x14f;" glyph-name="obreve" horiz-adv-x="436" d="M191 174Q191 157 198 149T217 140H219Q230 140 237 148T245 174V395Q245 412 238 420T219 429H217Q206 429 199 421T191 395V174ZM15 393Q15 438 30 472T73 531T136 567T215 579H220Q262 579
298 567T362 531T405 473T421 393V176Q421 131 406 97T363 38T299 2T220 -10H215Q173 -10 137 2T73 38T31 96T15 176V393ZM346 733Q344 667 313 632T218 596Q155 596 124 631T90 733H188Q190 701 218 701Q245 701 247 733H346Z" />
<glyph unicode="&#x150;" glyph-name="Ohungarumlaut" horiz-adv-x="478" d="M15 536Q15 585 32 622T78 685T148 724T234 738H244Q290 738 330 725T399 686T446 623T463 536V192Q463 143 446 106T400 43T330 4T244 -10H234Q188 -10 148 3T79 42T32 105T15 192V536ZM270
544Q270 567 262 577T241 587H237Q224 587 216 577T208 544V184Q208 161 216 151T237 141H241Q253 141 261 151T270 184V544ZM418 1152L369 1012H252L297 1152H418ZM269 1152L220 1012H103L149 1152H269Z" />
<glyph unicode="&#x151;" glyph-name="ohungarumlaut" horiz-adv-x="436" d="M191 174Q191 157 198 149T217 140H219Q230 140 237 148T245 174V395Q245 412 238 420T219 429H217Q206 429 199 421T191 395V174ZM15 393Q15 438 30 472T73 531T136 567T215 579H220Q262
579 298 567T362 531T405 473T421 393V176Q421 131 406 97T363 38T299 2T220 -10H215Q173 -10 137 2T73 38T31 96T15 176V393ZM247 753L200 600H88L132 753H247ZM387 753L340 600H229L272 753H387Z" />
<glyph unicode="&#x152;" glyph-name="OE" horiz-adv-x="594" d="M229 0Q184 0 145 13T77 51T32 115T15 202V526Q15 575 31 613T76 676T144 715T229 728H584V581H461V467H571V321H461V147H584V0H229ZM208 190Q208 167 216 157T237 147H268V581H237Q224 581 216
571T208 538V190Z" />
<glyph unicode="&#x153;" glyph-name="oe" horiz-adv-x="682" d="M668 217V177Q668 132 654 97T613 39T552 3T474 -9H469Q434 -9 401 3T344 39Q321 16 287 4T218 -9H213Q171 -9 135 3T73 39T31 97T15 177V393Q15 438 30 472T72 531T135 567T213 579H218Q252 579
286 567T344 532Q367 555 400 567T468 579H473Q515 579 550 567T612 531T653 473T668 393V246H448V175Q448 158 455 150T474 141H476Q487 141 493 149T500 175V217H668ZM191 175Q191 158 198 150T217 141H219Q230 141 237 149T245 172V395Q245 412 238 420T219
429H217Q206 429 199 421T191 395V175ZM448 353H500V398Q500 415 493 423T476 432H473Q448 432 448 398V353Z" />
<glyph unicode="&#x154;" glyph-name="Racute" horiz-adv-x="476" d="M210 0H18V728H276Q371 728 416 679T462 547V536Q462 473 443 434T374 380Q422 368 440 335T459 245V0H266V253Q266 289 240 289H210V0ZM240 426Q268 426 268 476V548Q268 591 240 591H210V426H240ZM121
856L346 909V793L121 752V856Z" />
<glyph unicode="&#x155;" glyph-name="racute" horiz-adv-x="279" d="M269 424H237Q194 424 194 369V0H17V395Q17 477 56 523T179 569H269V424ZM292 705L507 759V635L292 592V705Z" />
<glyph unicode="&#x156;" glyph-name="uni0156" horiz-adv-x="476" d="M210 0H18V728H276Q371 728 416 679T462 547V536Q462 473 443 434T374 380Q422 368 440 335T459 245V0H266V253Q266 289 240 289H210V0ZM240 426Q268 426 268 476V548Q268 591 240 591H210V426H240ZM306
-24L277 -171H173V-24H306Z" />
<glyph unicode="&#x157;" glyph-name="uni0157" horiz-adv-x="279" d="M269 424H237Q194 424 194 369V0H17V395Q17 477 56 523T179 569H269V424ZM428 -24L399 -171H295V-24H428Z" />
<glyph unicode="&#x158;" glyph-name="Rcaron" horiz-adv-x="476" d="M210 0H18V728H276Q371 728 416 679T462 547V536Q462 473 443 434T374 380Q422 368 440 335T459 245V0H266V253Q266 289 240 289H210V0ZM240 426Q268 426 268 476V548Q268 591 240 591H210V426H240ZM248
751H190L100 801V900L219 858L337 900V801L248 751Z" />
<glyph unicode="&#x159;" glyph-name="rcaron" horiz-adv-x="279" d="M269 424H237Q194 424 194 369V0H17V395Q17 477 56 523T179 569H269V424ZM430 595H371L280 645V750L400 705L519 750V645L430 595Z" />
<glyph unicode="&#x15a;" glyph-name="Sacute" horiz-adv-x="466" d="M320 444Q396 416 426 364T457 247V204Q457 151 440 111T392 44T322 4T236 -10H227Q181 -10 141 3T72 42T26 106T9 194V245H201V184Q201 161 209 151T230 141H233Q246 141 254 151T262 184V221Q262
244 255 256T225 277L143 307Q74 330 43 378T11 491V542Q11 588 27 624T73 686T141 725T227 738H236Q282 738 321 725T390 687T435 626T452 543V498H261V548Q261 587 233 587H230Q202 587 202 548V525Q202 502 209 492T240 473L320 444ZM118 856L343 909V793L118
752V856Z" />
<glyph unicode="&#x15b;" glyph-name="sacute" horiz-adv-x="420" d="M272 356Q306 345 331 332T374 299T399 251T408 182V169Q408 124 393 90T352 34T291 1T215 -10H210Q169 -10 134 0T72 31T30 83T15 157V182H184V156Q184 141 190 133T208 124H211Q221 124 228
132T235 154V166Q235 195 209 204L146 225Q112 237 87 250T45 282T20 328T12 396V404Q12 448 27 481T68 535T130 568T206 579H211Q251 579 286 569T346 537T387 485T402 412V389H234V410Q234 426 228 434T210 443H208Q184 443 184 414V410Q184 386 209 377L272
356ZM101 705L316 759V635L101 592V705Z" />
<glyph unicode="&#x15c;" glyph-name="Scircumflex" horiz-adv-x="466" d="M320 444Q396 416 426 364T457 247V204Q457 151 440 111T392 44T322 4T236 -10H227Q181 -10 141 3T72 42T26 106T9 194V245H201V184Q201 161 209 151T230 141H233Q246 141 254 151T262
184V221Q262 244 255 256T225 277L143 307Q74 330 43 378T11 491V542Q11 588 27 624T73 686T141 725T227 738H236Q282 738 321 725T390 687T435 626T452 543V498H261V548Q261 587 233 587H230Q202 587 202 548V525Q202 502 209 492T240 473L320 444ZM349 849V750L231
792L112 750V849L202 900H260L349 849Z" />
<glyph unicode="&#x15d;" glyph-name="scircumflex" horiz-adv-x="420" d="M272 356Q306 345 331 332T374 299T399 251T408 182V169Q408 124 393 90T352 34T291 1T215 -10H210Q169 -10 134 0T72 31T30 83T15 157V182H184V156Q184 141 190 133T208 124H211Q221
124 228 132T235 154V166Q235 195 209 204L146 225Q112 237 87 250T45 282T20 328T12 396V404Q12 448 27 481T68 535T130 568T206 579H211Q251 579 286 569T346 537T387 485T402 412V389H234V410Q234 426 228 434T210 443H208Q184 443 184 414V410Q184 386 209
377L272 356ZM328 695V590L209 634L89 590V695L180 745H239L328 695Z" />
<glyph unicode="&#x15e;" glyph-name="uni015E" horiz-adv-x="466" d="M320 444Q396 416 426 364T457 247V204Q457 151 440 111T392 44T322 4T236 -10H227Q181 -10 141 3T72 42T26 106T9 194V245H201V184Q201 161 209 151T230 141H233Q246 141 254 151T262 184V221Q262
244 255 256T225 277L143 307Q74 330 43 378T11 491V542Q11 588 27 624T73 686T141 725T227 738H236Q282 738 321 725T390 687T435 626T452 543V498H261V548Q261 587 233 587H230Q202 587 202 548V525Q202 502 209 492T240 473L320 444ZM161 -101H211Q228 -101
228 -90V-88Q228 -77 211 -77H175V0H251V-26Q286 -27 307 -42T329 -93V-95Q329 -130 307 -148T248 -166H161V-101Z" />
<glyph unicode="&#x15f;" glyph-name="uni015F" horiz-adv-x="420" d="M272 356Q306 345 331 332T374 299T399 251T408 182V169Q408 124 393 90T352 34T291 1T215 -10H210Q169 -10 134 0T72 31T30 83T15 157V182H184V156Q184 141 190 133T208 124H211Q221 124
228 132T235 154V166Q235 195 209 204L146 225Q112 237 87 250T45 282T20 328T12 396V404Q12 448 27 481T68 535T130 568T206 579H211Q251 579 286 569T346 537T387 485T402 412V389H234V410Q234 426 228 434T210 443H208Q184 443 184 414V410Q184 386 209 377L272
356ZM137 -101H187Q204 -101 204 -90V-88Q204 -77 187 -77H151V0H227V-26Q262 -27 283 -42T305 -93V-95Q305 -130 283 -148T224 -166H137V-101Z" />
<glyph unicode="&#x160;" glyph-name="Scaron" horiz-adv-x="466" d="M320 444Q396 416 426 364T457 247V204Q457 151 440 111T392 44T322 4T236 -10H227Q181 -10 141 3T72 42T26 106T9 194V245H201V184Q201 161 209 151T230 141H233Q246 141 254 151T262 184V221Q262
244 255 256T225 277L143 307Q74 330 43 378T11 491V542Q11 588 27 624T73 686T141 725T227 738H236Q282 738 321 725T390 687T435 626T452 543V498H261V548Q261 587 233 587H230Q202 587 202 548V525Q202 502 209 492T240 473L320 444ZM259 751H201L111 801V900L230
858L348 900V801L259 751Z" />
<glyph unicode="&#x161;" glyph-name="scaron" horiz-adv-x="420" d="M272 356Q306 345 331 332T374 299T399 251T408 182V169Q408 124 393 90T352 34T291 1T215 -10H210Q169 -10 134 0T72 31T30 83T15 157V182H184V156Q184 141 190 133T208 124H211Q221 124 228
132T235 154V166Q235 195 209 204L146 225Q112 237 87 250T45 282T20 328T12 396V404Q12 448 27 481T68 535T130 568T206 579H211Q251 579 286 569T346 537T387 485T402 412V389H234V410Q234 426 228 434T210 443H208Q184 443 184 414V410Q184 386 209 377L272
356ZM239 595H180L89 645V750L209 705L328 750V645L239 595Z" />
<glyph unicode="&#x162;" glyph-name="Tcommaaccent" horiz-adv-x="407" d="M557 572V0H364V572H265V728H656V572H557ZM270 -24L241 -171H137V-24H270Z" />
<glyph unicode="&#x163;" glyph-name="tcommaaccent" horiz-adv-x="279" d="M227 424V0H50V424H9V569H50V686H227V569H274V424H227ZM463 -24L434 -171H330V-24H463Z" />
<glyph unicode="&#x164;" glyph-name="Tcaron" horiz-adv-x="412" d="M557 572V0H364V572H265V728H656V572H557ZM233 751H175L85 801V900L204 858L322 900V801L233 751Z" />
<glyph unicode="&#x165;" glyph-name="tcaron" horiz-adv-x="280" d="M226 424V0H49V424H8V569H49V686H226V569H273V424H226ZM357 728V695L334 581H242V728H357Z" />
<glyph unicode="&#x166;" glyph-name="Tbar" horiz-adv-x="412" d="M301 572V447H355V343H301V0H108V343H52V447H108V572H9V728H400V572H301Z" />
<glyph unicode="&#x167;" glyph-name="tbar" horiz-adv-x="280" d="M227 424V357H274V267H227V0H50V267H9V357H50V424H9V569H50V686H227V569H274V424H227Z" />
<glyph unicode="&#x168;" glyph-name="Utilde" horiz-adv-x="478" d="M463 192Q463 143 446 106T400 43T330 4T244 -10H234Q188 -10 148 3T79 42T32 105T15 192V728H208V184Q208 161 216 151T237 141H241Q253 141 261 151T270 184V728H463V192ZM104 758V794Q104
845 121 867T174 889Q209 889 230 880T272 870Q288 870 288 892H374V855Q374 804 357 783T305 761Q273 761 250 770T206 780Q190 780 190 758H104Z" />
<glyph unicode="&#x169;" glyph-name="utilde" horiz-adv-x="436" d="M192 179Q192 157 198 148T219 139H243V569H419V0H174Q93 0 54 51T15 187V569H192V179ZM84 594V638Q84 690 101 712T154 735Q172 735 185 732T209 725T229 718T249 715Q265 715 265 737H350V694Q350
640 333 619T280 597Q248 597 227 606T185 616Q168 616 168 594H84Z" />
<glyph unicode="&#x16a;" glyph-name="Umacron" horiz-adv-x="478" d="M463 192Q463 143 446 106T400 43T330 4T244 -10H234Q188 -10 148 3T79 42T32 105T15 192V728H208V184Q208 161 216 151T237 141H241Q253 141 261 151T270 184V728H463V192ZM368 761H109V874H368V761Z"
/>
<glyph unicode="&#x16b;" glyph-name="umacron" horiz-adv-x="436" d="M192 179Q192 157 198 148T219 139H243V569H419V0H174Q93 0 54 51T15 187V569H192V179ZM348 603H86V717H348V603Z" />
<glyph unicode="&#x16c;" glyph-name="Ubreve" horiz-adv-x="478" d="M463 192Q463 143 446 106T400 43T330 4T244 -10H234Q188 -10 148 3T79 42T32 105T15 192V728H208V184Q208 161 216 151T237 141H241Q253 141 261 151T270 184V728H463V192ZM367 881Q365 818
333 785T238 751Q175 751 143 785T109 881H208Q210 851 238 851Q266 851 266 881H367Z" />
<glyph unicode="&#x16d;" glyph-name="ubreve" horiz-adv-x="436" d="M192 179Q192 157 198 148T219 139H243V569H419V0H174Q93 0 54 51T15 187V569H192V179ZM345 733Q343 667 312 632T217 596Q154 596 123 631T89 733H187Q189 701 217 701Q244 701 246 733H345Z" />
<glyph unicode="&#x16e;" glyph-name="Uring" horiz-adv-x="478" d="M463 192Q463 143 446 106T400 43T330 4T244 -10H234Q188 -10 148 3T79 42T32 105T15 192V728H208V184Q208 161 216 151T237 141H241Q253 141 261 151T270 184V728H463V192ZM339 834Q339 792
311 767T238 741Q194 741 166 766T137 834Q137 875 165 901T238 927Q282 927 310 901T339 834ZM259 834Q259 842 253 848T238 854Q229 854 223 848T217 834Q217 826 223 820T238 814Q247 814 253 820T259 834Z" />
<glyph unicode="&#x16f;" glyph-name="uring" horiz-adv-x="436" d="M192 179Q192 157 198 148T219 139H243V569H419V0H174Q93 0 54 51T15 187V569H192V179ZM315 688Q315 646 288 619T217 592Q174 592 147 619T119 688Q119 730 146 757T217 784Q260 784 287 757T315
688ZM237 688Q237 696 231 702T217 708Q208 708 203 702T197 688Q197 680 202 674T217 668Q225 668 231 674T237 688Z" />
<glyph unicode="&#x170;" glyph-name="Uhungarumlaut" horiz-adv-x="478" d="M463 192Q463 143 446 106T400 43T330 4T244 -10H234Q188 -10 148 3T79 42T32 105T15 192V728H208V184Q208 161 216 151T237 141H241Q253 141 261 151T270 184V728H463V192ZM420 897L371
757H254L299 897H420ZM271 897L222 757H105L151 897H271Z" />
<glyph unicode="&#x171;" glyph-name="uhungarumlaut" horiz-adv-x="436" d="M192 179Q192 157 198 148T219 139H243V569H419V0H174Q93 0 54 51T15 187V569H192V179ZM247 753L200 600H88L132 753H247ZM387 753L340 600H229L272 753H387Z" />
<glyph unicode="&#x172;" glyph-name="Uogonek" horiz-adv-x="478" d="M463 192Q463 123 433 80T351 10Q330 -2 322 -13T313 -33Q313 -49 335 -49H359V-137H264Q219 -137 198 -120T177 -76Q177 -55 190 -38T228 -10H225Q180 -8 142 6T76 45T31 108T15 192V728H208V184Q208
161 216 151T237 141H241Q253 141 261 151T270 184V728H463V192Z" />
<glyph unicode="&#x173;" glyph-name="uogonek" horiz-adv-x="436" d="M192 179Q192 157 198 148T219 139H243V569H419V0H174Q93 0 54 51T15 187V569H192V179ZM414 -137H318Q273 -137 253 -120T232 -76Q232 -45 261 -24T332 0H400Q381 -11 375 -19T369 -34Q369
-40 373 -44T390 -49H414V-137Z" />
<glyph unicode="&#x174;" glyph-name="Wcircumflex" horiz-adv-x="707" d="M704 728L638 0H397L354 405L308 0H76L3 728H200L221 285L276 728H444L496 279L518 728H704ZM472 849V750L354 792L235 750V849L325 900H383L472 849Z" />
<glyph unicode="&#x175;" glyph-name="wcircumflex" horiz-adv-x="642" d="M641 569L559 0H357L321 296L284 0H85L1 569H188L207 211L242 569H402L438 205L457 569H641ZM440 695V590L321 634L201 590V695L292 745H351L440 695Z" />
<glyph unicode="&#x176;" glyph-name="Ycircumflex" horiz-adv-x="460" d="M331 248V0H138V244L-3 728H196L235 474L270 728H463L331 248ZM348 849V750L230 792L111 750V849L201 900H259L348 849Z" />
<glyph unicode="&#x177;" glyph-name="ycircumflex" horiz-adv-x="446" d="M445 569L264 -126H84L140 70L0 569H186L224 311L262 569H445ZM342 695V590L223 634L103 590V695L194 745H253L342 695Z" />
<glyph unicode="&#x178;" glyph-name="Ydieresis" horiz-adv-x="460" d="M331 248V0H138V244L-3 728H196L235 474L270 728H463L331 248ZM84 877H216V756H84V877ZM243 877H375V756H243V877Z" />
<glyph unicode="&#x179;" glyph-name="Zacute" horiz-adv-x="413" d="M12 0V156L191 572H13V728H400V572L222 156H400V0H12ZM94 856L319 909V793L94 752V856Z" />
<glyph unicode="&#x17a;" glyph-name="zacute" horiz-adv-x="366" d="M11 430V569H351V430L206 139H355V0H10V139L158 430H11ZM332 705L547 759V635L332 592V705Z" />
<glyph unicode="&#x17b;" glyph-name="Zdotaccent" horiz-adv-x="413" d="M12 0V156L191 572H13V728H400V572L222 156H400V0H12ZM126 878H286V756H126V878Z" />
<glyph unicode="&#x17c;" glyph-name="zdotaccent" horiz-adv-x="366" d="M11 430V569H351V430L206 139H355V0H10V139L158 430H11ZM359 722H521V600H359V722Z" />
<glyph unicode="&#x17d;" glyph-name="Zcaron" horiz-adv-x="413" d="M12 0V156L191 572H13V728H400V572L222 156H400V0H12ZM237 751H179L89 801V900L208 858L326 900V801L237 751Z" />
<glyph unicode="&#x17e;" glyph-name="zcaron" horiz-adv-x="366" d="M11 430V569H351V430L206 139H355V0H10V139L158 430H11ZM470 595H411L320 645V750L440 705L559 750V645L470 595Z" />
<glyph unicode="&#x192;" glyph-name="uni0192" horiz-adv-x="280" d="M217 398L202 -137H23L40 398H6V543H45L46 576Q48 646 83 687T199 728H273V611H253Q236 611 230 604T223 579L222 543H273V398H217Z" />
<glyph unicode="&#x1fa;" glyph-name="Aringacute" horiz-adv-x="469" d="M-4 0L99 728H364L473 0H274L267 74H189L184 0H-4ZM201 230H252L224 537L201 230ZM328 834Q328 792 300 767T227 741Q183 741 155 766T126 834Q126 875 154 901T227 927Q271 927 299 901T328
834ZM248 834Q248 842 242 848T227 854Q218 854 212 848T206 834Q206 826 212 820T227 814Q236 814 242 820T248 834ZM115 1032L340 1085V969L115 928V1032Z" />
<glyph unicode="&#x1fb;" glyph-name="aringacute" horiz-adv-x="428" d="M171 0Q132 0 102 13T51 50T20 104T9 170V180Q9 252 50 292T171 333H235V399Q235 429 213 429H210Q201 429 195 421T189 399V359H29V403Q29 447 43 480T81 535T140 568T216 579H220Q262
579 297 569T357 536T397 482T411 404V0H171ZM235 128V225H216Q200 225 193 216T185 185V168Q185 146 192 137T216 128H235ZM314 688Q314 646 287 619T216 592Q173 592 146 619T118 688Q118 730 145 757T216 784Q259 784 286 757T314 688ZM236 688Q236 696 230
702T216 708Q207 708 202 702T196 688Q196 680 201 674T216 668Q224 668 230 674T236 688ZM104 884L329 937V821L104 780V884Z" />
<glyph unicode="&#x1fc;" glyph-name="AEacute" horiz-adv-x="587" d="M-4 0L134 728H578V581H450V467H565V321H450V147H578V0H265V80H194L183 0H-4ZM265 229V580L215 229H265ZM235 856L460 909V793L235 752V856Z" />
<glyph unicode="&#x1fd;" glyph-name="aeacute" horiz-adv-x="640" d="M625 217V173Q625 128 612 95T575 41T521 10T452 0H169Q130 0 101 13T51 50T20 104T9 170V180Q9 252 49 292T169 333H232V403Q232 432 210 432H208Q186 432 186 403V359H29V403Q29 447 42
480T80 535T136 568T207 579H211Q242 579 272 571T322 546Q341 563 371 571T431 579H436Q475 579 509 567T569 531T610 473T625 393V246H408V124H435Q458 124 458 158V217H625ZM232 128V225H213Q197 225 190 216T182 185V168Q182 146 189 137T213 128H232ZM408
349H458V398Q458 416 452 424T434 432H432Q421 432 415 424T408 397V349ZM221 705L436 759V635L221 592V705Z" />
<glyph unicode="&#x1fe;" glyph-name="Oslashacute" horiz-adv-x="478" d="M16 535Q16 584 33 622T79 685T149 724T235 737H245Q310 737 360 711L376 741H472L428 654Q445 630 454 601T463 535V192Q463 143 446 106T400 43T330 4T245 -10H235Q175 -10 124 13L111
-14H15L55 68Q16 118 16 192V535ZM206 337L274 546Q273 588 242 588H238Q224 588 215 579T206 545V337ZM274 380L206 179Q206 157 214 148T238 139H241Q255 139 264 149T274 182V380ZM127 856L352 909V793L127 752V856Z" />
<glyph unicode="&#x1ff;" glyph-name="oslashacute" horiz-adv-x="436" d="M15 393Q15 438 30 472T73 531T136 567T215 579H220Q271 579 313 561L324 584H414L381 512Q400 489 410 460T421 393V176Q421 131 406 97T363 38T299 2T220 -10H215Q165 -10 123 7L113
-15H25L56 55Q36 78 26 108T15 176V393ZM188 269L246 424Q240 441 222 441H216Q204 441 196 433T188 408V269ZM220 128Q232 128 240 136T248 161V291L191 143Q197 128 214 128H220ZM111 705L326 759V635L111 592V705Z" />
<glyph unicode="&#x218;" glyph-name="uni0218" horiz-adv-x="466" d="M320 444Q396 416 426 364T457 247V204Q457 151 440 111T392 44T322 4T236 -10H227Q181 -10 141 3T72 42T26 106T9 194V245H201V184Q201 161 209 151T230 141H233Q246 141 254 151T262 184V221Q262
244 255 256T225 277L143 307Q74 330 43 378T11 491V542Q11 588 27 624T73 686T141 725T227 738H236Q282 738 321 725T390 687T435 626T452 543V498H261V548Q261 587 233 587H230Q202 587 202 548V525Q202 502 209 492T240 473L320 444ZM298 -24L269 -171H165V-24H298Z"
/>
<glyph unicode="&#x219;" glyph-name="uni0219" horiz-adv-x="420" d="M272 356Q306 345 331 332T374 299T399 251T408 182V169Q408 124 393 90T352 34T291 1T215 -10H210Q169 -10 134 0T72 31T30 83T15 157V182H184V156Q184 141 190 133T208 124H211Q221 124
228 132T235 154V166Q235 195 209 204L146 225Q112 237 87 250T45 282T20 328T12 396V404Q12 448 27 481T68 535T130 568T206 579H211Q251 579 286 569T346 537T387 485T402 412V389H234V410Q234 426 228 434T210 443H208Q184 443 184 414V410Q184 386 209 377L272
356ZM278 -24L249 -171H145V-24H278Z" />
<glyph unicode="&#x21a;" glyph-name="uni021A" horiz-adv-x="407" d="M557 572V0H364V572H265V728H656V572H557ZM270 -24L241 -171H137V-24H270Z" />
<glyph unicode="&#x21b;" glyph-name="uni021B" horiz-adv-x="279" d="M227 424V0H50V424H9V569H50V686H227V569H274V424H227ZM463 -24L434 -171H330V-24H463Z" />
<glyph unicode="&#x237;" glyph-name="uni0237" horiz-adv-x="212" d="M-28 -27H-15Q18 -27 18 16V569H195V32Q195 -45 154 -91T32 -137H-28V-27Z" />
<glyph unicode="&#x2c6;" glyph-name="circumflex" horiz-adv-x="401" d="M320 695V590L201 634L81 590V695L172 745H231L320 695Z" />
<glyph unicode="&#x2c7;" glyph-name="caron" horiz-adv-x="399" d="M231 595H172L81 645V750L201 705L320 750V645L231 595Z" />
<glyph unicode="&#x2d8;" glyph-name="breve" horiz-adv-x="400" d="M328 733Q326 667 295 632T200 596Q137 596 106 631T72 733H170Q172 701 200 701Q227 701 229 733H328Z" />
<glyph unicode="&#x2d9;" glyph-name="dotaccent" horiz-adv-x="400" d="M119 722H281V600H119V722Z" />
<glyph unicode="&#x2da;" glyph-name="ring" horiz-adv-x="400" d="M298 688Q298 646 271 619T200 592Q157 592 130 619T102 688Q102 730 129 757T200 784Q243 784 270 757T298 688ZM220 688Q220 696 214 702T200 708Q191 708 186 702T180 688Q180 680 185 674T200
668Q208 668 214 674T220 688Z" />
<glyph unicode="&#x2db;" glyph-name="ogonek" horiz-adv-x="400" d="M290 -137H194Q149 -137 129 -120T108 -76Q108 -45 137 -24T208 0H276Q257 -11 251 -19T245 -34Q245 -40 249 -44T266 -49H290V-137Z" />
<glyph unicode="&#x2dc;" glyph-name="tilde" horiz-adv-x="405" d="M69 594V638Q69 690 86 712T139 735Q157 735 170 732T194 725T214 718T234 715Q250 715 250 737H335V694Q335 640 318 619T265 597Q233 597 212 606T170 616Q153 616 153 594H69Z" />
<glyph unicode="&#x2dd;" glyph-name="hungarumlaut" horiz-adv-x="399" d="M219 753L172 600H60L104 753H219ZM359 753L312 600H201L244 753H359Z" />
</font>
</defs>
</svg>
