<?xml version="1.0" encoding="utf-8"?>
<!-- Generator: Adobe Illustrator 21.1.0, SVG Export Plug-In . SVG Version: 6.00 Build 0)  -->
<svg version="1.1" id="Layer_1" xmlns="http://www.w3.org/2000/svg" xmlns:xlink="http://www.w3.org/1999/xlink" x="0px" y="0px"
	 viewBox="0 0 173 79.666168" style="enable-background:new 0 0 173 79.666168;" xml:space="preserve">
<style type="text/css">
	.st0{fill:#F9AE00;}
</style>
<g>
	<polygon class="st0" points="0,37.710678 0,0 16.730902,0 16.730902,7.615355 9.944906,7.615355 9.944906,13.520383 
		16.057613,13.520383 16.057613,21.082958 9.944906,21.082958 9.944906,30.096535 16.730902,30.096535 16.730902,37.710678 	"/>
	<polygon class="st0" points="32.528385,37.710678 30.041519,24.708797 27.504251,37.710678 17.350422,37.710678 
		22.789841,17.871157 17.712889,0 27.865547,0 30.041519,12.691061 32.320709,0 42.421722,0 37.241554,17.716331 
		42.680973,37.710678 	"/>
	<g>
		<path class="st0" d="M53.400993,16.473043h1.502682c1.035755,0,1.502686-0.984146,1.502686-2.694472V9.37619
			c0-1.502648-0.518501-2.27919-1.502686-2.27919h-1.502682V16.473043z M43.456085,0.00011h11.861702
			c7.407711,0,11.136772,3.419443,11.136772,10.877556v1.658681c0,7.458149-3.729061,11.032379-11.136772,11.032379h-1.916794
			v14.142101h-9.944908V0.00011z"/>
	</g>
	<polygon class="st0" points="67.645103,37.710678 67.645103,0 84.375999,0 84.375999,7.615355 77.591255,7.615355 
		77.591255,13.520383 83.702713,13.520383 83.702713,21.082958 77.591255,21.082958 77.591255,30.096535 84.375999,30.096535 
		84.375999,37.710678 	"/>
	<g>
		<path class="st0" d="M97.325401,15.643576c1.035751,0,1.44986-0.932575,1.44986-2.590048V9.324471
			c0-1.451076-0.465683-2.227617-1.44986-2.227617h-1.55426v8.546721H97.325401z M95.771141,37.710678h-9.944977V0h13.363136
			c6.526749,0,9.63533,3.730265,9.63533,9.37608v0.570072c0,4.299165-1.191788,7.096891-4.558449,8.081038
			c3.315018,0.82815,4.403587,3.158985,4.403587,6.992466v12.691023H98.67205V24.605579
			c0-1.295042-0.466934-1.86515-1.346649-1.86515h-1.55426V37.710678z"/>
	</g>
	<polygon class="st0" points="124.466522,8.081001 124.466522,37.710678 114.468727,37.710678 114.468727,8.081001 
		109.341377,8.081001 109.341377,0 129.594971,0 129.594971,8.081001 	"/>
	<rect x="0.00011" y="41.437813" class="st0" width="9.944943" height="37.710697"/>
	<polygon class="st0" points="20.874435,59.205055 20.874435,79.147812 11.809178,79.147812 11.809178,41.437119 
		22.583481,41.437119 26.676249,61.587479 26.676249,41.437119 35.741432,41.437119 35.741432,79.147812 25.070349,79.147812 	"/>
	<polygon class="st0" points="62.10503,41.437576 56.614037,79.148293 42.162251,79.148293 36.516472,41.437576 
		46.927063,41.437576 49.362358,70.859612 51.84798,41.437576 	"/>
	<polygon class="st0" points="62.880215,79.148033 62.880215,41.437336 79.611115,41.437336 79.611115,49.052692 
		72.825119,49.052692 72.825119,54.957737 78.937828,54.957737 78.937828,62.520294 72.825119,62.520294 72.825119,71.53389 
		79.611115,71.53389 79.611115,79.148033 	"/>
	<g>
		<path class="st0" d="M96.704193,56.14883c5.28331,1.91674,7.096817,5.801849,7.096817,10.204227v2.227585
			c0,7.356102-5.128525,11.085175-11.447586,11.085175H91.88649c-6.370712,0-11.291626-3.729073-11.291626-10.566673v-2.641678
			h9.944977v3.158966c0,1.605881,0.621719,2.2276,1.502686,2.2276h0.154861c0.88089,0,1.502609-0.673325,1.502609-2.2276v-1.91674
			c0-1.553085-0.362465-2.330811-1.916725-2.899712l-4.247551-1.554276c-4.714417-1.554276-6.837646-5.076897-6.837646-9.530907
			v-2.641655c0-6.423546,4.817703-10.153812,11.188416-10.153812h0.466934c6.319061,0,11.188339,3.730267,11.188339,10.100994
			v2.330818h-9.893341v-2.58886c0-1.347839-0.570145-2.021164-1.451035-2.021164h-0.154861
			c-0.880966,0-1.451042,0.621716-1.451042,2.021164V51.9529c0,1.554276,0.362473,2.124367,1.968369,2.694473L96.704193,56.14883z"
			/>
	</g>
	<polygon class="st0" points="119.442314,49.518375 119.442314,79.148056 109.444519,79.148056 109.444519,49.518375 
		104.317169,49.518375 104.317169,41.437355 124.570763,41.437355 124.570763,49.518375 	"/>
	<g>
		<path class="st0" d="M138.29483,50.969086c0-1.605904-0.672119-2.2276-1.501434-2.2276h-0.207611
			c-0.879791,0-1.501511,0.621696-1.501511,2.2276v18.647697c0,1.605896,0.621719,2.2276,1.501511,2.2276h0.207611
			c0.829315,0,1.501434-0.621704,1.501434-2.2276V50.969086z M125.086555,51.383141
			c0-6.734386,5.024055-10.463444,11.344368-10.463444h0.517334c6.320312,0,11.344376,3.729057,11.344376,10.463444v17.819565
			c0,6.734406-5.024063,10.463463-11.344376,10.463463h-0.517334c-6.320312,0-11.344368-3.729057-11.344368-10.463463V51.383141z"/>
		<path class="st0" d="M161.500763,57.080929c1.035751,0,1.449875-0.932575,1.449875-2.590065v-3.729057
			c0-1.451073-0.465683-2.227596-1.449875-2.227596h-1.55426v8.546719H161.500763z M159.946503,79.148033h-9.946213V41.437336
			h13.36438c6.526749,0,9.63533,3.730267,9.63533,9.37608v0.570091c0,4.299164-1.191788,7.096874-4.558456,8.081039
			c3.315018,0.828148,4.40242,3.158966,4.40242,6.992447v12.69104h-9.996552V66.042915
			c0-1.295021-0.466919-1.865128-1.346649-1.865128h-1.55426V79.148033z"/>
	</g>
</g>
</svg>
