<?xml version="1.0" encoding="utf-8"?>
<!-- Generator: Adobe Illustrator 21.1.0, SVG Export Plug-In . SVG Version: 6.00 Build 0)  -->
<svg version="1.1" id="Layer_1" xmlns="http://www.w3.org/2000/svg" xmlns:xlink="http://www.w3.org/1999/xlink" x="0px" y="0px"
	 viewBox="0 0 275 80.049614" style="enable-background:new 0 0 275 80.049614;" xml:space="preserve">
<style type="text/css">
	.st0{fill:#0095DB;}
</style>
<g>
	<rect x="2.543429" y="0.517268" class="st0" width="9.929544" height="37.647682"/>
	<polygon class="st0" points="23.382881,18.254812 23.382881,38.164253 14.332813,38.164253 14.332813,0.516573 25.089125,0.516573 
		29.175014,20.633274 29.175014,0.516573 38.225063,0.516573 38.225063,38.164253 27.571798,38.164253 	"/>
	<polygon class="st0" points="54.822289,8.584433 54.822289,38.164585 44.841221,38.164585 44.841221,8.584433 39.722477,8.584433 
		39.722477,0.516939 59.942219,0.516939 59.942219,8.584433 	"/>
	<polygon class="st0" points="61.388092,38.164585 61.388092,0.516939 78.09108,0.516939 78.09108,8.119564 71.317619,8.119564 
		71.317619,14.014722 77.418884,14.014722 77.418884,21.564655 71.317619,21.564655 71.317619,30.563166 78.09108,30.563166 
		78.09108,38.164585 	"/>
	<g>
		<path class="st0" d="M91.018799,16.134365c1.034058,0,1.447441-0.931016,1.447441-2.585718V9.825825
			c0-1.44865-0.464905-2.223894-1.447441-2.223894H89.46714v8.532434H91.018799z M89.46714,38.164585h-9.929565V0.516939h13.342049
			c6.515831,0,9.619186,3.724029,9.619186,9.360407v0.569118c0,4.291979-1.189796,7.08503-4.550797,8.067532
			c3.309479,0.826765,4.396233,3.153704,4.396233,6.980778v12.669811h-9.981049V25.08139
			c0-1.292877-0.46611-1.862034-1.344398-1.862034H89.46714V38.164585z"/>
	</g>
	<polygon class="st0" points="113.20179,18.254812 113.20179,38.164253 104.151718,38.164253 104.151718,0.516573 
		114.908012,0.516573 118.993904,20.633274 118.993904,0.516573 128.043976,0.516573 128.043976,38.164253 117.390686,38.164253 	
		"/>
	<path class="st0" d="M139.365723,26.270018h2.638443l-1.448608-15.875074L139.365723,26.270018z M128.765213,38.164585
		l5.325989-37.647648h13.703918l5.636368,37.647648h-10.290207l-0.361862-3.827038h-4.033157l-0.25882,3.827038H128.765213z"/>
	<polygon class="st0" points="165.531448,8.584433 165.531448,38.164585 155.551575,38.164585 155.551575,8.584433 
		150.431625,8.584433 150.431625,0.516939 170.651367,0.516939 170.651367,8.584433 	"/>
	<rect x="172.096909" y="0.517268" class="st0" width="9.92952" height="37.647682"/>
	<g>
		<path class="st0" d="M196.918243,10.032607c0-1.603216-0.672165-2.223894-1.498932-2.223894h-0.207291
			c-0.879501,0-1.498962,0.620677-1.498962,2.223894v18.616528c0,1.603216,0.619461,2.223856,1.498962,2.223856h0.207291
			c0.826767,0,1.498932-0.62064,1.498932-2.223856V10.032607z M183.73201,10.445953C183.73201,3.722823,188.747665,0,195.057449,0
			h0.516434c6.309738,0,11.325439,3.722823,11.325439,10.445953v17.789799c0,6.723129-5.015701,10.445953-11.325439,10.445953
			h-0.516434c-6.309784,0-11.325439-3.722824-11.325439-10.445953V10.445953z"/>
	</g>
	<polygon class="st0" points="217.65419,18.254812 217.65419,38.164253 208.604126,38.164253 208.604126,0.516573 
		219.360413,0.516573 223.446304,20.633274 223.446304,0.516573 232.496384,0.516573 232.496384,38.164253 221.843094,38.164253 	
		"/>
	<path class="st0" d="M243.818207,26.270018h2.638443l-1.448608-15.875074L243.818207,26.270018z M233.217682,38.164585
		l5.326004-37.647648h13.703903l5.636383,37.647648H247.59375l-0.361862-3.827038h-4.034363l-0.257614,3.827038H233.217682z"/>
	<polygon class="st0" points="258.60733,0.517012 268.535645,0.517012 268.535645,30.097164 275,30.097164 275,38.164692 
		258.60733,38.164692 	"/>
	<path class="st0" d="M10.600538,67.639023h2.638447l-1.448632-15.876244L10.600538,67.639023z M0,79.532417l5.326021-37.647644
		h13.70389l5.637566,37.647644H14.376071l-0.361842-3.827034h-4.03318L9.72225,79.532417H0z"/>
	<g>
		<path class="st0" d="M36.973305,72.447937c0.931,0,1.500156-0.827972,1.500156-2.326935V51.29718
			c0-1.500137-0.569157-2.326904-1.500156-2.326904h-1.654736v23.477661H36.973305z M37.335167,41.88525
			c7.136513,0,11.169674,3.930153,11.169674,11.377007v15.307087c0,7.446854-4.033161,10.963585-11.169674,10.963585H25.389042
			V41.88525H37.335167z"/>
	</g>
	<polygon class="st0" points="73.842857,41.88525 68.361046,79.532928 53.933434,79.532928 48.297073,41.88525 58.690315,41.88525 
		61.121487,71.258102 63.60297,41.88525 	"/>
	<rect x="74.616783" y="41.885361" class="st0" width="9.929543" height="37.647682"/>
	<g>
		<path class="st0" d="M102.023849,56.571915c5.274483,1.913555,7.084991,5.792152,7.084991,10.187172v2.223862
			c0,7.343803-5.119949,11.066666-11.42849,11.066666h-0.466118c-6.3601,0-11.273926-3.722862-11.273926-10.55024v-2.636032
			h9.929527v3.153664c0,1.603218,0.620682,2.223892,1.500175,2.223892h0.154564c0.879463,0,1.500137-0.672195,1.500137-2.223892
			v-1.913521c0-1.550484-0.361862-2.326935-1.913521-2.894882l-4.240456-1.551659
			c-4.706566-1.551697-6.82621-5.068428-6.82621-9.514973v-2.638447c0-6.411625,4.809608-10.135654,11.169708-10.135654h0.466118
			c6.30854,0,11.16967,3.72403,11.16967,10.084129v2.326904H98.97319v-2.584515c0-1.345604-0.569153-2.017803-1.448616-2.017803
			H97.37001c-0.879494,0-1.448654,0.620678-1.448654,2.017803v1.188629c0,1.551655,0.361862,2.120811,1.96508,2.688763
			L102.023849,56.571915z"/>
	</g>
	<polygon class="st0" points="110.502861,79.532417 110.502861,41.884773 127.205833,41.884773 127.205833,49.4874 
		120.432388,49.4874 120.432388,55.382557 126.533669,55.382557 126.533669,62.932491 120.432388,62.932491 120.432388,71.931 
		127.205833,71.931 127.205833,79.532417 	"/>
	<g>
		<path class="st0" d="M140.133514,57.502201c1.034058,0,1.447433-0.92981,1.447433-2.58572v-3.72282
			c0-1.44865-0.46611-2.223896-1.447433-2.223896h-1.551666v8.532436H140.133514z M138.581848,79.532417h-9.928345V41.884773
			h13.340836c6.517044,0,9.619186,3.72403,9.619186,9.360409v0.569118c0,4.291977-1.189804,7.08503-4.550797,8.067532
			c3.309479,0.826763,4.396225,3.154873,4.396225,6.980778v12.669807h-9.981049V66.449226
			c0-1.292877-0.46611-1.862022-1.344391-1.862022h-1.551666V79.532417z"/>
	</g>
</g>
</svg>
