<svg xmlns="http://www.w3.org/2000/svg" viewBox="1662.641 -4686.544 41.176 41.176">
  <defs>
    <style>
      .cls-1 {
        fill: #fff;
      }

      .cls-2 {
        fill: #69b42e;
      }
    </style>
  </defs>
  <g id="Linked_in_hover_on_black_bcg" data-name="Linked in hover on black bcg" transform="translate(1484 -4891)">
    <path id="Oval-1" class="cls-1" d="M20.588,0A20.588,20.588,0,1,1,0,20.588,20.588,20.588,0,0,1,20.588,0Z" transform="translate(178.641 204.455)"/>
    <g id="linkedin-logo" transform="translate(189.242 214.004)">
      <path id="LinkedIn" class="cls-2" d="M19.688,21.092v7.279h-4.22V21.58c0-1.706-.61-2.87-2.138-2.87a2.309,2.309,0,0,0-2.165,1.544,2.887,2.887,0,0,0-.14,1.029v7.089H6.8s.057-11.5,0-12.694h4.221v1.8c-.009.013-.02.028-.028.041h.028v-.041a4.191,4.191,0,0,1,3.8-2.1C17.606,15.379,19.688,17.193,19.688,21.092ZM2.389,9.558a2.2,2.2,0,1,0-.056,4.387h.028a2.2,2.2,0,1,0,.028-4.387ZM.251,28.371H4.47V15.677H.251Z" transform="translate(0 -9.558)"/>
    </g>
  </g>
</svg>
