<svg xmlns="http://www.w3.org/2000/svg" viewBox="308 -4379 50 50">
  <defs>
    <style>
      .cls-1 {
        fill: #fff;
        stroke: #343534;
      }

      .cls-2 {
        fill: #343534;
      }

      .cls-3 {
        stroke: none;
      }

      .cls-4 {
        fill: none;
      }
    </style>
  </defs>
  <g id="Subscribe_icon" data-name="Subscribe icon" transform="translate(233 -4946)">
    <g id="Ellipse_50" data-name="Ellipse 50" class="cls-1" transform="translate(75 567)">
      <circle class="cls-3" cx="25" cy="25" r="25"/>
      <circle class="cls-4" cx="25" cy="25" r="24.5"/>
    </g>
    <path id="ic_library_books_24px" class="cls-2" d="M4,6H2V20a2.006,2.006,0,0,0,2,2H18V20H4ZM20,2H8A2.006,2.006,0,0,0,6,4V16a2.006,2.006,0,0,0,2,2H20a2.006,2.006,0,0,0,2-2V4A2.006,2.006,0,0,0,20,2Zm-1,9H9V9H19Zm-4,4H9V13h6Zm4-8H9V5H19Z" transform="translate(87.667 580.333)"/>
  </g>
</svg>
