<svg xmlns="http://www.w3.org/2000/svg" viewBox="1722.669 -4686.544 41.176 41.176">
  <defs>
    <style>
      .cls-1 {
        fill: #fff;
      }

      .cls-2 {
        fill: #69b42e;
        fill-rule: evenodd;
      }
    </style>
  </defs>
  <g id="twitter_hover_on_black_bcg" data-name="twitter hover on black bcg" transform="translate(1484 -4891)">
    <path id="Oval-1" class="cls-1" d="M20.588,0A20.588,20.588,0,1,1,0,20.588,20.588,20.588,0,0,1,20.588,0Z" transform="translate(238.669 204.455)"/>
    <path id="Fill-1" class="cls-2" d="M37.127,21.361a6.5,6.5,0,0,1-2.533.913h0A4.022,4.022,0,0,0,31.659,21,4.094,4.094,0,0,0,27.6,25.125a4.188,4.188,0,0,0,.1.921h0a11.189,11.189,0,0,1-8.373-4.281,4.167,4.167,0,0,0,1.232,5.451,2.58,2.58,0,0,1-1.774-.467,3.968,3.968,0,0,0,3.133,4.033,3.169,3.169,0,0,1-1.691.131,3.852,3.852,0,0,0,3.631,2.8A7.151,7.151,0,0,1,18,35.425a12.062,12.062,0,0,0,6.354,1.824A11.383,11.383,0,0,0,35.721,25.2c0-.007,0-.015,0-.023s0-.034,0-.052,0-.04,0-.06a7.07,7.07,0,0,0,1.969-2.112,7.035,7.035,0,0,1-2.252.649,4.375,4.375,0,0,0,1.692-2.241" transform="translate(231.257 195.808)"/>
  </g>
</svg>
