<?xml version="1.0" encoding="utf-8"?>
<!-- Generator: Adobe Illustrator 21.1.0, SVG Export Plug-In . SVG Version: 6.00 Build 0)  -->
<svg version="1.1" id="Layer_1" xmlns="http://www.w3.org/2000/svg" xmlns:xlink="http://www.w3.org/1999/xlink" x="0px" y="0px"
	 viewBox="0 0 9 11.005578" style="enable-background:new 0 0 9 11.005578;" xml:space="preserve">
<style type="text/css">
	.st0{fill:#004F9F;}
</style>
<path class="st0" d="M7.999159,4.998478c0.07116,0.004425,0.111586,0.008163,0.152083,0.009273
	c0.573472,0.015718,0.847334,0.296185,0.847961,0.875877c0.001363,1.257832,0.000413,2.515667,0.000406,3.7735
	c-0.000001,0.1666,0.001003,0.333209-0.000207,0.499801c-0.004103,0.565221-0.282622,0.847363-0.84559,0.847664
	c-2.407376,0.001281-4.814754,0.000569-7.222132,0.00052c-0.066635-0.000002-0.133395,0.001758-0.199886-0.001551
	c-0.413323-0.020572-0.721153-0.300338-0.72393-0.711309c-0.010245-1.51598-0.010234-3.0321-0.001412-4.548093
	C0.008948,5.315619,0.329789,5.024492,0.76421,5.008736C0.830496,5.006332,0.896943,5.0084,1.001833,5.0084
	c0-0.114901-0.00324-0.219532,0.000531-0.323909c0.022812-0.6314-0.042936-1.282329,0.089117-1.89019
	c0.314101-1.44586,1.238391-2.390079,2.688473-2.704045c1.389591-0.300868,2.559739,0.157977,3.463254,1.264199
	c0.515425,0.631063,0.751122,1.362328,0.755476,2.171892C8.001277,4.008509,7.999159,4.490695,7.999159,4.998478z M2.51345,4.990239
	c1.33697,0,2.655287,0,3.967715,0c0-0.59059,0.044949-1.167651-0.009859-1.735077
	C6.373376,2.241293,5.508819,1.502651,4.498742,1.50401C3.478059,1.505384,2.612117,2.258735,2.522246,3.281812
	C2.473036,3.842011,2.51345,4.410083,2.51345,4.990239z"/>
</svg>
