<?xml version="1.0" encoding="utf-8"?>
<!-- Generator: Adobe Illustrator 21.1.0, SVG Export Plug-In . SVG Version: 6.00 Build 0)  -->
<svg version="1.1" id="Layer_1" xmlns="http://www.w3.org/2000/svg" xmlns:xlink="http://www.w3.org/1999/xlink" x="0px" y="0px"
	 viewBox="0 0 13 15.896947" style="enable-background:new 0 0 13 15.896947;" xml:space="preserve">
<style type="text/css">
	.st0{fill:#004F9F;}
</style>
<path class="st0" d="M11.55434,7.220024c0.102788,0.006392,0.16118,0.011791,0.219676,0.013393
	c0.828348,0.022704,1.223927,0.427822,1.224833,1.265156c0.001969,1.816869,0.000598,3.633741,0.000587,5.450612
	c-0.000001,0.240645,0.001449,0.481302-0.000299,0.721933c-0.005926,0.816431-0.408233,1.223971-1.221408,1.224404
	c-3.477321,0.001851-6.954645,0.000822-10.431968,0.000751c-0.096251-0.000002-0.192682,0.002539-0.288724-0.00224
	c-0.597022-0.029714-1.041666-0.433821-1.045677-1.027447c-0.014798-2.189749-0.014782-4.3797-0.002039-6.569468
	C0.012924,7.678116,0.476361,7.257599,1.103859,7.23484c0.095746-0.003472,0.191725-0.000484,0.343233-0.000484
	c0-0.165968-0.004681-0.317102,0.000767-0.467869C1.48081,5.854465,1.385841,4.914234,1.576583,4.036212
	c0.453701-2.088465,1.788787-3.452337,3.88335-3.905843c2.007186-0.434587,3.697401,0.228189,5.002478,1.826066
	c0.744503,0.911536,1.084953,1.967806,1.091243,3.137178C11.5574,5.790068,11.55434,6.48656,11.55434,7.220024z M3.630539,7.208124
	c1.931179,0,3.835414,0,5.731144,0c0-0.853074,0.064925-1.686607-0.014241-2.506223
	c-0.141455-1.464477-1.390259-2.531405-2.84926-2.529442C5.023863,2.174443,3.773057,3.262617,3.643244,4.740396
	C3.572163,5.549571,3.630539,6.37012,3.630539,7.208124z"/>
</svg>
