<?xml version="1.0" encoding="utf-8"?>
<!-- Generator: Adobe Illustrator 21.1.0, SVG Export Plug-In . SVG Version: 6.00 Build 0)  -->
<svg version="1.1" id="Layer_1" xmlns="http://www.w3.org/2000/svg" xmlns:xlink="http://www.w3.org/1999/xlink" x="0px" y="0px"
	 viewBox="0 0 271 80.054" style="enable-background:new 0 0 271 80.054;" xml:space="preserve">
<style type="text/css">
	.st0{fill:#E40233;}
</style>
<g>
	<polygon class="st0" points="12.543,21.98 12.543,38.167 2.613,38.167 2.613,0.518 19.318,0.518 19.318,8.12 12.543,8.12 
		12.543,14.378 18.801,14.378 18.801,21.98 	"/>
	<g>
		<path class="st0" d="M43.623,28.237c0,6.724-5.016,10.447-11.326,10.447H31.78c-6.31,0-11.326-3.723-11.326-10.447V0.518h9.982
			v28.133c0,1.603,0.619,2.224,1.499,2.224h0.207c0.827,0,1.499-0.621,1.499-2.224V0.518h9.982V28.237z"/>
	</g>
	<polygon class="st0" points="54.378,18.256 54.378,38.167 45.328,38.167 45.328,0.517 56.085,0.517 60.171,20.635 60.171,0.517 
		69.221,0.517 69.221,38.167 58.568,38.167 	"/>
	<g>
		<path class="st0" d="M82.665,31.082c0.931,0,1.5-0.827,1.5-2.327V9.93c0-1.5-0.569-2.327-1.5-2.327H81.01v23.479H82.665z
			 M83.027,0.517c7.137,0,11.17,3.93,11.17,11.378v15.308c0,7.447-4.033,10.964-11.17,10.964H71.08V0.517H83.027z"/>
		<path class="st0" d="M116.639,15.205c5.275,1.914,7.085,5.792,7.085,10.188v2.224c0,7.344-5.12,11.067-11.429,11.067h-0.466
			c-6.36,0-11.273-3.723-11.273-10.55v-2.637h9.929v3.154c0,1.603,0.621,2.224,1.5,2.224h0.155c0.879,0,1.5-0.672,1.5-2.224v-1.914
			c0-1.551-0.362-2.327-1.914-2.895l-4.241-1.552c-4.707-1.552-6.827-5.069-6.827-9.515v-2.637c0-6.413,4.81-10.137,11.17-10.137
			h0.466c6.309,0,11.17,3.724,11.17,10.085v2.327h-9.877V9.827c0-1.346-0.569-2.018-1.449-2.018h-0.155
			c-0.88,0-1.449,0.621-1.449,2.018v1.189c0,1.552,0.362,2.121,1.965,2.689L116.639,15.205z"/>
	</g>
	<polygon class="st0" points="125.119,38.167 125.119,0.517 141.823,0.517 141.823,8.12 135.048,8.12 135.048,14.016 
		141.151,14.016 141.151,21.566 135.048,21.566 135.048,30.565 141.823,30.565 141.823,38.167 	"/>
	<polygon class="st0" points="143.27,0.517 153.199,0.517 153.199,30.099 159.663,30.099 159.663,38.167 143.27,38.167 	"/>
	<polygon class="st0" points="161.11,38.167 161.11,0.517 177.814,0.517 177.814,8.12 171.039,8.12 171.039,14.016 177.142,14.016 
		177.142,21.566 171.039,21.566 171.039,30.565 177.814,30.565 177.814,38.167 	"/>
	<g>
		<path class="st0" d="M201.861,28.237c0,6.724-4.706,10.447-11.016,10.447h-0.465c-6.362,0-11.275-3.723-11.275-10.447V10.395
			C179.106,3.724,184.019,0,190.381,0h0.516c6.259,0,10.964,3.724,10.964,10.395v3.258h-9.568v-3.62
			c0-1.603-0.619-2.224-1.499-2.224h-0.156c-0.93,0-1.551,0.621-1.551,2.224v18.618c0,1.603,0.621,2.224,1.551,2.224h0.156
			c0.88,0,1.499-0.621,1.499-2.224v-4.292h9.568V28.237z"/>
	</g>
	<polygon class="st0" points="217.529,8.585 217.529,38.167 207.547,38.167 207.547,8.585 202.428,8.585 202.428,0.517 
		222.649,0.517 222.649,8.585 	"/>
	<g>
		<path class="st0" d="M236.351,10.034c0-1.603-0.671-2.224-1.499-2.224h-0.207c-0.878,0-1.499,0.621-1.499,2.224v18.618
			c0,1.603,0.621,2.224,1.499,2.224h0.207c0.828,0,1.499-0.621,1.499-2.224V10.034z M223.164,10.447
			C223.164,3.723,228.18,0,234.49,0h0.516c6.31,0,11.326,3.723,11.326,10.447v17.791c0,6.724-5.016,10.447-11.326,10.447h-0.516
			c-6.31,0-11.326-3.723-11.326-10.447V10.447z"/>
		<path class="st0" d="M259.519,16.136c1.034,0,1.448-0.931,1.448-2.586V9.827c0-1.449-0.465-2.224-1.448-2.224h-1.552v8.533
			H259.519z M257.968,38.167h-9.93V0.517h13.343c6.516,0,9.62,3.724,9.62,9.361v0.569c0,4.292-1.19,7.085-4.551,8.068
			c3.31,0.827,4.395,3.154,4.395,6.981v12.671h-9.98V25.083c0-1.293-0.466-1.862-1.344-1.862h-1.552V38.167z"/>
	</g>
	<path class="st0" d="M10.601,67.642h2.639l-1.449-15.876L10.601,67.642z M0,79.537l5.326-37.65h13.705l5.638,37.65H14.377
		l-0.362-3.827H9.982l-0.259,3.827H0z"/>
	<g>
		<path class="st0" d="M40.751,56.575c5.275,1.914,7.085,5.792,7.085,10.188v2.224c0,7.344-5.12,11.067-11.429,11.067h-0.466
			c-6.36,0-11.273-3.723-11.273-10.55v-2.637h9.929v3.154c0,1.603,0.621,2.224,1.5,2.224h0.155c0.879,0,1.5-0.672,1.5-2.224v-1.914
			c0-1.551-0.362-2.327-1.914-2.895l-4.241-1.552c-4.707-1.552-6.827-5.069-6.827-9.516v-2.637c0-6.413,4.81-10.137,11.17-10.137
			h0.466c6.309,0,11.17,3.724,11.17,10.085v2.327H37.7v-2.585c0-1.346-0.569-2.018-1.449-2.018h-0.155
			c-0.88,0-1.449,0.621-1.449,2.018v1.189c0,1.552,0.362,2.121,1.965,2.69L40.751,56.575z"/>
	</g>
	<rect x="49.23" y="41.888" class="st0" width="9.93" height="37.65"/>
	<path class="st0" d="M70.484,67.642h2.639l-1.449-15.876L70.484,67.642z M59.883,79.537l5.326-37.65h13.705l5.638,37.65H74.26
		l-0.362-3.827h-4.033l-0.259,3.827H59.883z"/>
</g>
</svg>
