<?xml version="1.0" encoding="utf-8"?>
<!-- Generator: Adobe Illustrator 21.1.0, SVG Export Plug-In . SVG Version: 6.00 Build 0)  -->
<svg version="1.1" id="Layer_1" xmlns="http://www.w3.org/2000/svg" xmlns:xlink="http://www.w3.org/1999/xlink" x="0px" y="0px"
	 viewBox="0 0 189 78.867" style="enable-background:new 0 0 189 78.867;" xml:space="preserve">
<style type="text/css">
	.st0{fill:#69B42E;}
</style>
<path class="st0" d="M12.218,16.711h1.478c1.019,0,1.478-0.968,1.478-2.649v-4.33c0-1.478-0.51-2.242-1.478-2.242h-1.478V16.711z
	 M2.437,0.509h11.667c7.286,0,10.954,3.363,10.954,10.699v1.63c0,7.337-3.668,10.852-10.954,10.852h-1.885v13.91H2.437V0.509z"/>
<path class="st0" d="M39.068,9.884c0-1.58-0.662-2.191-1.478-2.191h-0.204c-0.865,0-1.477,0.612-1.477,2.191v18.341
	c0,1.58,0.612,2.191,1.477,2.191h0.204c0.816,0,1.478-0.611,1.478-2.191V9.884z M26.075,10.292C26.075,3.668,31.017,0,37.233,0
	h0.509C43.959,0,48.9,3.668,48.9,10.292v17.527c0,6.624-4.942,10.292-11.158,10.292h-0.509c-6.217,0-11.158-3.668-11.158-10.292
	V10.292z"/>
<path class="st0" d="M61.891,15.896c1.019,0,1.426-0.917,1.426-2.548V9.681c0-1.427-0.458-2.191-1.426-2.191h-1.529v8.406H61.891z
	 M60.363,37.601H50.58V0.509h13.145c6.421,0,9.477,3.669,9.477,9.222v0.561c0,4.229-1.172,6.98-4.484,7.947
	c3.261,0.816,4.331,3.108,4.331,6.879v12.483h-9.834v-12.89c0-1.274-0.459-1.834-1.325-1.834h-1.529V37.601z"/>
<polygon class="st0" points="88.587,8.457 88.587,37.6 78.753,37.6 78.753,8.457 73.71,8.457 73.71,0.509 93.631,0.509 
	93.631,8.457 "/>
<polygon class="st0" points="104.838,21.653 104.838,37.601 95.055,37.601 95.055,0.51 111.512,0.51 111.512,7.999 104.838,7.999 
	104.838,14.164 111.002,14.164 111.002,21.653 "/>
<path class="st0" d="M125.624,9.884c0-1.58-0.662-2.191-1.478-2.191h-0.204c-0.865,0-1.477,0.612-1.477,2.191v18.341
	c0,1.58,0.612,2.191,1.477,2.191h0.204c0.816,0,1.478-0.611,1.478-2.191V9.884z M112.632,10.292C112.632,3.668,117.573,0,123.79,0
	h0.509c6.217,0,11.158,3.668,11.158,10.292v17.527c0,6.624-4.942,10.292-11.158,10.292h-0.509c-6.217,0-11.158-3.668-11.158-10.292
	V10.292z"/>
<polygon class="st0" points="137.137,0.509 146.919,0.509 146.919,29.652 153.287,29.652 153.287,37.601 137.137,37.601 "/>
<rect x="154.712" y="0.509" class="st0" width="9.783" height="37.091"/>
<path class="st0" d="M179.168,9.884c0-1.58-0.662-2.191-1.478-2.191h-0.204c-0.865,0-1.477,0.612-1.477,2.191v18.341
	c0,1.58,0.611,2.191,1.477,2.191h0.204c0.816,0,1.478-0.611,1.478-2.191V9.884z M166.175,10.292C166.175,3.668,171.117,0,177.333,0
	h0.509C184.058,0,189,3.668,189,10.292v17.527c0,6.624-4.942,10.292-11.158,10.292h-0.509c-6.217,0-11.158-3.668-11.158-10.292
	V10.292z"/>
<path class="st0" d="M10.444,66.639h2.599l-1.427-15.64L10.444,66.639z M0,78.358l5.247-37.091h13.501l5.554,37.091H14.164
	l-0.356-3.771H9.834l-0.255,3.771H0z"/>
<path class="st0" d="M36.427,71.377c0.917,0,1.478-0.815,1.478-2.293V50.539c0-1.478-0.561-2.293-1.478-2.293h-1.63v23.131H36.427z
	 M36.784,41.266c7.031,0,11.005,3.872,11.005,11.209v15.081c0,7.337-3.974,10.802-11.005,10.802h-11.77V41.266H36.784z"/>
<polygon class="st0" points="72.752,41.266 67.351,78.358 53.137,78.358 47.583,41.266 57.823,41.266 60.218,70.205 62.663,41.266 
	"/>
<rect x="73.515" y="41.266" class="st0" width="9.783" height="37.091"/>
<path class="st0" d="M100.517,55.736c5.197,1.885,6.98,5.707,6.98,10.037v2.191c0,7.235-5.044,10.903-11.26,10.903h-0.459
	c-6.266,0-11.106-3.668-11.106-10.393v-2.598h9.782v3.107c0,1.581,0.612,2.191,1.478,2.191h0.152c0.866,0,1.478-0.662,1.478-2.191
	v-1.884c0-1.529-0.357-2.293-1.885-2.853l-4.178-1.529c-4.637-1.529-6.725-4.994-6.725-9.374v-2.598
	c0-6.318,4.739-9.987,11.005-9.987h0.459c6.215,0,11.005,3.669,11.005,9.935v2.293h-9.731v-2.546c0-1.325-0.561-1.988-1.427-1.988
	h-0.152c-0.867,0-1.427,0.612-1.427,1.988v1.171c0,1.529,0.357,2.089,1.936,2.65L100.517,55.736z"/>
<polygon class="st0" points="108.87,78.358 108.87,41.266 125.326,41.266 125.326,48.756 118.653,48.756 118.653,54.565 
	124.664,54.565 124.664,62.003 118.653,62.003 118.653,70.868 125.326,70.868 125.326,78.358 "/>
<path class="st0" d="M138.063,56.653c1.019,0,1.426-0.917,1.426-2.548v-3.668c0-1.427-0.458-2.191-1.426-2.191h-1.529v8.406H138.063
	z M136.534,78.358h-9.783V41.266h13.145c6.42,0,9.477,3.669,9.477,9.222v0.561c0,4.229-1.172,6.98-4.484,7.947
	c3.261,0.816,4.331,3.108,4.331,6.879v12.483h-9.834v-12.89c0-1.274-0.459-1.835-1.325-1.835h-1.529V78.358z"/>
</svg>
