<?xml version="1.0" encoding="utf-8"?>
<!-- Generator: Adobe Illustrator 21.1.0, SVG Export Plug-In . SVG Version: 6.00 Build 0)  -->
<svg version="1.1" id="Layer_1" xmlns="http://www.w3.org/2000/svg" xmlns:xlink="http://www.w3.org/1999/xlink" x="0px" y="0px"
	 viewBox="0 0 30.846 30.846" style="enable-background:new 0 0 30.846 30.846;" xml:space="preserve">
<style type="text/css">
	.st0{fill:none;stroke:#1D1D1B;stroke-width:0.8457;stroke-miterlimit:10;}
	.st1{fill:#3C3C3B;}
	.st2{fill:#878787;}
</style>
<g>
	<circle class="st0" cx="15.423" cy="15.423" r="15"/>
	<g>
		<path class="st1" d="M9.945,14.664c-0.843,0-1.526,0.683-1.526,1.527v8.444c0,0.843,0.684,1.526,1.526,1.526h5.461V14.664H9.945z"
			/>
		<path class="st1" d="M13.53,4.685c-1.79,0-3.245,1.456-3.245,3.245v5.892h1.527V7.93c0-0.948,0.771-1.719,1.719-1.719h1.877V4.685
			H13.53z"/>
		<path class="st2" d="M22.427,24.635v-8.444c0-0.843-0.683-1.527-1.526-1.527h-5.495v11.497h5.495
			C21.744,26.161,22.427,25.478,22.427,24.635z"/>
		<path class="st2" d="M19.035,7.93v2.839h1.527V7.93c0-1.789-1.456-3.245-3.245-3.245h-1.91v1.526h1.91
			C18.264,6.211,19.035,6.982,19.035,7.93z"/>
	</g>
</g>
</svg>
